<?xml version="1.0" encoding="UTF-8" standalone="no"?>

<svg
   xmlns:dc="http://purl.org/dc/elements/1.1/"
   xmlns:cc="http://creativecommons.org/ns#"
   xmlns:rdf="http://www.w3.org/1999/02/22-rdf-syntax-ns#"
   xmlns:svg="http://www.w3.org/2000/svg"
   xmlns="http://www.w3.org/2000/svg"
   version="1.1"
   width="100"
   height="142"
   xml:space="preserve">
<path
     d=" M 5 6 L 6 6 L 6 7 L 8 8 L 9 10 L 11 11 L 13 13 L 21 20 L 24 24 L 30 30 L 34 36 L 36 39 L 37 42 L 41 48 L 42 55 L 45 61 L 46 66 L 48 70 L 49 74 L 51 78 L 52 82 L 55 86 L 56 91 L 56 97 L 56 100 L 56 103 L 57 106 L 57 109 L 57 112 L 57 116 L 56 119 L 55 121 L 54 122 L 53 125 L 52 126 L 50 128 L 49 129 L 47 131 L 46 131 L 44 132 L 42 132 L 41 132 L 39 132 L 37 132 L 35 132 L 34 132 L 32 132 L 30 131 L 27 129 L 26 127 L 25 126 L 24 125 L 23 123 L 23 121 L 22 119 L 21 115 L 21 113 L 21 111 L 21 109 L 21 107 L 22 105 L 23 102 L 24 101 L 26 99 L 27 97 L 29 95 L 30 93 L 32 91 L 33 89 L 35 87 L 36 85 L 38 83 L 40 81 L 42 78 L 43 76 L 45 74 L 46 72 L 48 69 L 50 66 L 52 64 L 54 62 L 55 59 L 55 57 L 56 55 L 57 53 L 58 51 L 58 49 L 58 47 L 58 45 L 58 43 L 59 41 L 59 38 L 59 37 L 59 34 L 59 32 L 59 30 L 59 29 L 59 27 L 59 25 L 59 23 L 59 21 L 59 19 L 59 18 L 59 17 L 60 15 L 60 14 L 61 12 L 61 11 L 61 10 L 61 8 L 62 7 L 62 6 L 62 5 L 63 5 L 64 5 L 64 6 L 65 6 L 66 7 L 67 8 L 67 10 L 69 11 L 70 12 L 71 14 L 72 15 L 73 16 L 75 16 L 76 17 L 78 17 L 79 17 L 81 17 L 82 17 L 84 17 L 85 17 L 86 17 L 87 17 L 88 17 L 89 17 L 90 17 L 90 16"
     style="fill:none;stroke:#ff0000;stroke-width:5;stroke-linecap:round;" />

</svg>