<?xml version="1.0" encoding="UTF-8" standalone="no"?>

<svg
   xmlns:dc="http://purl.org/dc/elements/1.1/"
   xmlns:cc="http://creativecommons.org/ns#"
   xmlns:rdf="http://www.w3.org/1999/02/22-rdf-syntax-ns#"
   xmlns:svg="http://www.w3.org/2000/svg"
   xmlns="http://www.w3.org/2000/svg"
   version="1.1"
   width="126"
   height="142"
   xml:space="preserve">
<path
     d=" M 38 15 L 43 24 L 44 29 L 45 34 L 46 42 L 47 51 L 47 60 L 47 70 L 48 80 L 49 88 L 50 96 L 51 103 L 51 110 L 52 114 L 52 117 L 52 118 L 52 119 L 52 119 L 52 120 L 51 120 L 50 120 L 49 120 M 5 35 L 6 26 L 10 22 L 19 16 L 29 11 L 39 7 L 50 6 L 60 5 L 69 7 L 75 8 L 79 10 L 82 12 L 84 15 L 85 19 L 85 22 L 84 26 L 81 29 L 76 33 L 70 36 L 63 39 L 59 41 L 55 42 L 53 43 L 52 43 L 51 44 L 51 45 L 52 47 L 55 51 L 59 57 L 66 65 L 74 75 L 82 86 L 89 96 L 97 106 L 103 115 L 108 121 L 111 125 L 113 129 L 114 130 L 115 131 L 116 132"
     style="fill:none;stroke:#ff0000;stroke-width:5;stroke-linecap:round;" />

</svg>