<?xml version="1.0" encoding="UTF-8" standalone="no"?>

<svg
   xmlns:dc="http://purl.org/dc/elements/1.1/"
   xmlns:cc="http://creativecommons.org/ns#"
   xmlns:rdf="http://www.w3.org/1999/02/22-rdf-syntax-ns#"
   xmlns:svg="http://www.w3.org/2000/svg"
   xmlns="http://www.w3.org/2000/svg"
   version="1.1"
   width="105"
   height="119"
   xml:space="preserve">
<path
     d=" M 13 108 L 6 87 L 5 82 L 5 76 L 5 70 L 6 62 L 8 51 L 10 42 L 12 34 L 17 20 L 22 11 L 27 8 L 33 6 L 40 5 L 47 5 L 53 5 L 62 8 L 67 11 L 72 15 L 76 21 L 80 28 L 85 38 L 87 44 L 90 51 L 92 57 L 93 64 L 95 75 L 95 82 L 95 88 L 95 94 L 95 99 L 95 103 L 95 107 L 95 109 L 94 109 L 92 108 L 90 105 L 92 107 L 90 105"
     style="fill:none;stroke:#ff0000;stroke-width:5;stroke-linecap:round;" />

</svg>