<?xml version="1.0" encoding="UTF-8" standalone="no"?>

<svg
   xmlns:dc="http://purl.org/dc/elements/1.1/"
   xmlns:cc="http://creativecommons.org/ns#"
   xmlns:rdf="http://www.w3.org/1999/02/22-rdf-syntax-ns#"
   xmlns:svg="http://www.w3.org/2000/svg"
   xmlns="http://www.w3.org/2000/svg"
   version="1.1"
   width="75"
   height="103"
   xml:space="preserve">
<path
     d=" M 18 5 L 21 82 L 21 87 L 20 82 L 21 77 L 22 73 L 25 69 L 29 62 L 33 58 L 36 53 L 40 50 L 43 48 L 47 46 L 51 46 L 53 48 L 56 49 L 57 52 L 59 56 L 60 63 L 61 69 L 62 74 L 63 78 L 64 83 L 64 88 L 65 90 L 64 91 L 64 93 L 62 92 M 5 28 L 23 26 L 27 26 L 30 26 L 32 25 L 33 25"
     style="fill:none;stroke:#ff0000;stroke-width:5;stroke-linecap:round;" />

</svg>