<?xml version="1.0" encoding="UTF-8" standalone="no"?>
<!-- Created with Inkscape (http://www.inkscape.org/) -->
<svg xmlns:rdf="http://www.w3.org/1999/02/22-rdf-syntax-ns#" xmlns="http://www.w3.org/2000/svg" height="48" width="48" version="1.1" xmlns:cc="http://creativecommons.org/ns#" xmlns:xlink="http://www.w3.org/1999/xlink" xmlns:dc="http://purl.org/dc/elements/1.1/">
 <defs>
  <filter id="filter41170" height="1" width="1" color-interpolation-filters="sRGB" y="0" x="0">
   <feColorMatrix values="1" type="saturate" result="fbSourceGraphic"/>
   <feColorMatrix result="fbSourceGraphic" values="-1 0 0 0 1 0 -1 0 0 1 0 0 -1 0 1 0 0 0 1 0 " in="fbSourceGraphic"/>
   <feColorMatrix values="0 0 0 -1 0 0 0 0 -1 0 0 0 0 -1 0 0 0 0 1 0" result="fbSourceGraphicAlpha" in="fbSourceGraphic"/>
   <feColorMatrix values="1" in="fbSourceGraphic" type="saturate" result="fbSourceGraphic"/>
   <feColorMatrix values="-1 0 0 0 1 0 -1 0 0 1 0 0 -1 0 1 0 0 0 1 0 " in="fbSourceGraphic"/>
  </filter>
  <linearGradient id="linearGradient44294" y2="19.303" gradientUnits="userSpaceOnUse" x2="43.07" gradientTransform="matrix(0.997,0.0773,-0.0773,0.997,19.516282,25.178667)" y1="27.542" x1="15.985">
   <stop stop-color="#EBEBEB" offset="0"/>
   <stop stop-color="#EAEAEA" offset="1"/>
  </linearGradient>
  <linearGradient id="linearGradient44296" y2="33.207" gradientUnits="userSpaceOnUse" x2="27.986" gradientTransform="matrix(0.997,0.0773,-0.0773,0.997,19.516282,25.178667)" y1="58.057" x1="16.203">
   <stop stop-color="#F8F8F8" offset="0"/>
   <stop stop-color="#C9C9C9" offset="1"/>
  </linearGradient>
  <linearGradient id="linearGradient44298" y2="21.949" gradientUnits="userSpaceOnUse" x2="45.293" gradientTransform="matrix(0.997,0.0773,-0.0773,0.997,19.516282,25.178667)" y1="61.979" x1="32.599">
   <stop stop-color="#dbdbdb" offset="0"/>
   <stop stop-color="#828282" offset="1"/>
  </linearGradient>
  <linearGradient id="linearGradient44300" y2="31.015" gradientUnits="userSpaceOnUse" x2="32.954" gradientTransform="translate(-48.714648,47.884434)" y1="24.493" x1="36.438">
   <stop stop-color="#FFF" offset="0"/>
   <stop stop-color="#FFF" offset="1"/>
  </linearGradient>
  <linearGradient id="linearGradient44302" y2="30.708" gradientUnits="userSpaceOnUse" x2="32.954" gradientTransform="translate(-48.714648,47.884434)" y1="24.185" x1="36.439">
   <stop stop-color="#000" offset="0"/>
   <stop stop-color="#6A6A6A" offset="1"/>
  </linearGradient>
  <linearGradient id="linearGradient44304" y2="32.287" gradientUnits="userSpaceOnUse" x2="26.002" gradientTransform="translate(12.486655,33.427377)" y1="32.287" x1="21.11">
   <stop stop-color="#e7ebef" offset="0"/>
   <stop stop-color="#c4ce00" offset="1"/>
  </linearGradient>
  <filter id="filter52861" height="1" width="1" color-interpolation-filters="sRGB" y="0" x="0">
   <feColorMatrix result="result2" type="saturate" values="1" in="SourceGraphic"/>
   <feFlood result="result1" flood-opacity="1" flood-color="rgb(254,102,0)"/>
   <feBlend result="result3" in="result1" in2="result2" mode="multiply"/>
   <feComposite operator="in" in2="SourceGraphic" result="result4"/>
  </filter>
 </defs>
 <metadata>
  <rdf:RDF>
   <cc:Work rdf:about="">
    <dc:format>image/svg+xml</dc:format>
    <dc:type rdf:resource="http://purl.org/dc/dcmitype/StillImage"/>
    <dc:title/>
   </cc:Work>
  </rdf:RDF>
 </metadata>
 <g fill-rule="nonzero" transform="translate(-143.74918,-232.34716)">
  <g transform="matrix(2.1251899,0,0,2.1251899,404.97773,429.04188)" filter="url(#filter52861)" fill="#FFF"></g>
  <g transform="matrix(0.1464726,0,0,0.1464726,47.320302,175.0676)">
   <g transform="matrix(5.8986696,0,0,5.8986696,543.55099,156.36266)">
    <path stroke-linejoin="round" d="M63.564,46.098c-0.5-0.103-11.734-3.323-12.334-3.523s-1.4-0.2-1.7-0.1-18.217,10.607-18.817,10.907c-0.1,0-0.1,0.1-0.2,0.2-0.7,0.6-0.7,1.5-0.7,1.5v-0.1,0.1l0.2,31.081c0,0.5,0.1,0.7,0.5,0.9,0,0,13,5.2,14.5,5.6h0.2c0.7,0.1,0.9,0.1,1.2-0.2l0.1-0.1c0.3-0.2,16.981-12.886,17.281-13.186s0.3-0.5,0.4-0.8c0-0.3,0.46958-30.579,0.46958-30.979v-0.1c0-0.4-0.35367-1.0462-1.1-1.2zm-17.651,46.165v0.1-0.1zm17.351-44.665c0.4-0.3,0.6-0.5,0.6-0.5s-0.3,0.2-0.7,0.5c-0.7,0.5-1.6,1.1-2.6,1.9,1.7-1.2,3.2-2.2,3.6-2.5-0.1,0.1-0.4,0.3-0.9,0.6z" stroke="#000" stroke-linecap="round" stroke-miterlimit="4" stroke-width="2.92729998" fill="#000"/>
    <path d="m51.188,42.46c-0.6-0.2-1.4-0.2-1.7-0.1s-18.175,10.722-18.775,11.122c-0.5,0.3-0.7,0.9,0,1.2,0.7,0.2,13.8,4.5,14.3,4.6,0.6,0.2,1.5,0.2,1.8-0.1,0.3-0.2,17.247-11.786,17.547-12.086s-0.29497-0.83214-0.7155-0.97231c-0.47947-0.15982-11.957-3.5631-12.557-3.7631l0.1,0.1z" fill="url(#linearGradient44294)"/>
    <path d="m29.913,55.182c0-0.5,0.3-0.8,0.7-0.7,0.3,0.1,14.4,4.7,14.9,5.1,0.5,0.3,0.8,0.5,0.8,0.9s-0.2,31.181-0.2,31.581-0.3,0.8-0.9,0.6c-1.5-0.4-14.5-5.6-14.5-5.6-0.4-0.2-0.5-0.4-0.5-0.9l-0.3-30.981z" fill="url(#linearGradient44296)"/>
    <path d="m46.613,92.463c-0.3,0.2-0.62266-0.03315-0.62266-0.59944,0-0.5,0.12266-31.082,0.12266-31.482s0.2-0.8,0.5-1,17.283-11.985,17.683-12.285,0.6,0.3,0.5,0.6c0,0.3-0.56735,30.444-0.56735,30.744s-0.1,0.5-0.4,0.7c-0.3,0.3-17.116,13.122-17.316,13.422l0.1-0.1z" fill="url(#linearGradient44298)"/>
    <path d="m30.513,54.282c-0.1,0,0-0.5,0.3-0.8-0.9,0.6-0.9,1.7-0.9,1.7s0.1-0.5,0.6-0.5c1.8,0.6,14.2,4.9,14.7,5.1s0.78846,0.38004,0.78846,0.88004l0.09846,1.1927,0.18045-1.2148c0-0.5,0.33263-0.85791,0.93263-1.2579,0.3-0.2,7.857-5.5438,9.9917-7.4504-2.0281,1.0802-10.055,7.3504-11.159,7.3504-0.85074,0-15.433-5-15.533-5z" fill="#FFF"/>
    <path fill="#FFF" d="m56.013,52.782c0.5-0.4,0.9-0.6,0.9-0.6s-0.3,0.2-0.9,0.6z"/>
    <path d="m46.69,92.398c-0.3,0.3-0.69887,0.53202-1.4099,0.28839,0.61049,0.04363,0.7442-0.59944,0.7442-0.59944s0.0779,0.54307,0.66573,0.31105z" fill="#848484"/>
    <path d="m64.11,47.256c0.50144-0.24132,0.71177,0.01963,0.72727,0.44835,0.0723-0.44132,0.0568-1.2343-1.193-1.5808,0,0,1.0033,0.49669,0.46571,1.1324z" fill="#545454"/>
   </g>
   <g transform="matrix(5.8986696,0,0,5.8986696,972.84693,168.90367)">
    <path opacity="0.12999998" d="m-9.4693,73.008-10.845,7.8766,0,0.4,10.827-8.0117,0.018-0.26484z" fill="url(#linearGradient44300)"/>
    <path opacity="0.12999998" d="m-9.4146,72.684-10.9,7.9,0,0.4,10.851-8.05,0.0492-0.25z" fill="url(#linearGradient44302)"/>
   </g>
   <path d="m33.587,64.527,0,0.6,4.9,1.7,0-0.5-4.9-1.8,0,0z" transform="matrix(5.8986696,0,0,5.8986696,550.77099,134.66181)" filter="url(#filter41170)" fill="url(#linearGradient44304)"/>
   <path opacity="0.21999996" d="m33.587,65.127-0.3,0.2,0-1.2,5.4,1.9-0.2,0.3-4.9-1.8,0,0.6z" transform="matrix(5.8986696,0,0,5.8986696,550.77099,134.66181)" filter="url(#filter41170)" fill="#000"/>
   <path opacity="0.72000002" d="m38.687,67.227,0-1.2-0.2,0.3,0,0.5-4.9-1.7-0.3,0.2,5.4,1.9,0,0z" transform="matrix(5.8986696,0,0,5.8986696,550.77099,134.66181)" filter="url(#filter41170)" fill="#FFF"/>
   <g transform="matrix(5.8986696,0,0,5.8986696,972.84693,158.40367)">
    <path opacity="0.12999998" d="m-9.4693,73.008-10.845,7.8766,0,0.4,10.827-8.0117,0.018-0.26484z" fill="url(#linearGradient44300)"/>
    <path opacity="0.12999998" d="m-9.4146,72.684-10.9,7.9,0,0.4,10.851-8.05,0.0492-0.25z" fill="url(#linearGradient44302)"/>
   </g>
   <g transform="matrix(5.8986696,0,0,5.8986696,972.84693,147.90367)">
    <path opacity="0.12999998" d="m-9.4693,73.008-10.845,7.8766,0,0.4,10.827-8.0117,0.018-0.26484z" fill="url(#linearGradient44300)"/>
    <path opacity="0.12999998" d="m-9.4146,72.684-10.9,7.9,0,0.4,10.851-8.05,0.0492-0.25z" fill="url(#linearGradient44302)"/>
   </g>
   <g transform="matrix(5.8986696,0,0,5.8986696,972.84693,137.40367)">
    <path opacity="0.12999998" d="m-9.4693,73.008-10.845,7.8766,0,0.4,10.827-8.0117,0.018-0.26484z" fill="url(#linearGradient44300)"/>
    <path opacity="0.12999998" d="m-9.4146,72.684-10.9,7.9,0,0.4,10.851-8.05,0.0492-0.25z" fill="url(#linearGradient44302)"/>
   </g>
   <g transform="matrix(5.8986696,0,0,5.8986696,972.84693,179.40367)">
    <path opacity="0.12999998" d="m-9.4693,73.008-10.845,7.8766,0,0.4,10.827-8.0117,0.018-0.26484z" fill="url(#linearGradient44300)"/>
    <path opacity="0.12999998" d="m-9.4146,72.684-10.9,7.9,0,0.4,10.851-8.05,0.0492-0.25z" fill="url(#linearGradient44302)"/>
   </g>
  </g>
 </g>
</svg>
