<?xml version="1.0" encoding="UTF-8" standalone="no"?>
<!-- Generator: Adobe Illustrator 9.0, SVG Export Plug-In  -->
<svg
   xmlns:dc="http://purl.org/dc/elements/1.1/"
   xmlns:cc="http://web.resource.org/cc/"
   xmlns:rdf="http://www.w3.org/1999/02/22-rdf-syntax-ns#"
   xmlns:svg="http://www.w3.org/2000/svg"
   xmlns="http://www.w3.org/2000/svg"
   xmlns:xlink="http://www.w3.org/1999/xlink"
   xmlns:sodipodi="http://sodipodi.sourceforge.net/DTD/sodipodi-0.dtd"
   xmlns:inkscape="http://www.inkscape.org/namespaces/inkscape"
   sodipodi:docbase="/home/jimmac/gfx/ximian/gorilla-icon-theme/scalable/devices"
   sodipodi:docname="computer.svg"
   inkscape:version="0.44"
   sodipodi:version="0.32"
   id="svg22109"
   xml:space="preserve"
   viewBox="0 0 48 48"
   height="48.000000px"
   width="48.000000px"><metadata
   id="metadata22510">
  <rdf:RDF>
    <cc:Work
   rdf:about="">
      <dc:format>image/svg+xml</dc:format>
      <dc:type
   rdf:resource="http://purl.org/dc/dcmitype/StillImage" />
      <dc:title>Computer Desktop</dc:title>
      <dc:creator>
        <cc:Agent>
          <dc:title>Jakub Steiner</dc:title>
        </cc:Agent>
      </dc:creator>
      <cc:license
   rdf:resource="http://creativecommons.org/licenses/by-sa/2.5/" />
      <dc:subject>
        <rdf:Bag>
          <rdf:li>workstation</rdf:li>
          <rdf:li>desktop</rdf:li>
          <rdf:li>computer</rdf:li>
        </rdf:Bag>
      </dc:subject>
      <dc:source>http://jimmac.musichall.cz</dc:source>
    </cc:Work>
    
  <cc:License
   rdf:about="http://creativecommons.org/licenses/by-sa/2.5/"><cc:permits
     rdf:resource="http://web.resource.org/cc/Reproduction" /><cc:permits
     rdf:resource="http://web.resource.org/cc/Distribution" /><cc:requires
     rdf:resource="http://web.resource.org/cc/Notice" /><cc:requires
     rdf:resource="http://web.resource.org/cc/Attribution" /><cc:permits
     rdf:resource="http://web.resource.org/cc/DerivativeWorks" /><cc:requires
     rdf:resource="http://web.resource.org/cc/ShareAlike" /></cc:License></rdf:RDF>
</metadata>
<defs
   id="defs22508"><radialGradient
     id="aigrd18"
     cx="23.6826"
     cy="19.9106"
     r="7.8359"
     fx="23.6826"
     fy="19.9106"
     gradientUnits="userSpaceOnUse">
			<stop
   offset="0"
   style="stop-color:#B6B6B6"
   id="stop22286" />

			<stop
   offset="1"
   style="stop-color:#878787"
   id="stop22288" />

		</radialGradient><radialGradient
     gradientTransform="translate(2.000000,0.500000)"
     r="7.8359"
     fy="19.9106"
     fx="23.6826"
     cy="19.9106"
     cx="23.6826"
     gradientUnits="userSpaceOnUse"
     id="radialGradient24154"
     xlink:href="#aigrd18"
     inkscape:collect="always" /><radialGradient
     gradientTransform="translate(2.000000,0.500000)"
     r="7.8359"
     fy="19.9106"
     fx="23.6826"
     cy="19.9106"
     cx="23.6826"
     gradientUnits="userSpaceOnUse"
     id="radialGradient24157"
     xlink:href="#aigrd18"
     inkscape:collect="always" /><linearGradient
     gradientTransform="matrix(1.000000,-2.300000e-3,2.300000e-3,1.000000,-0.249600,0.270600)"
     y2="18.891199"
     x2="21.178200"
     y1="7.1201000"
     x1="21.178200"
     gradientUnits="userSpaceOnUse"
     id="aigrd23">
				<stop
   id="stop22338"
   style="stop-color:#120751"
   offset="0" />

				<stop
   id="stop22340"
   style="stop-color:#7473B5"
   offset="1" />

			</linearGradient><linearGradient
     gradientTransform="matrix(1.000000,-2.300000e-3,2.300000e-3,1.000000,-0.249600,0.270600)"
     y2="18.933300"
     x2="21.347200"
     y1="7.1641002"
     x1="21.347200"
     gradientUnits="userSpaceOnUse"
     id="aigrd24">
				<stop
   id="stop22345"
   style="stop-color:#120751"
   offset="0" />

				<stop
   id="stop22347"
   style="stop-color:#7473B5"
   offset="1" />

			</linearGradient><linearGradient
     y2="18.9333"
     x2="21.3472"
     y1="7.1641"
     x1="21.3472"
     gradientTransform="matrix(1.000000,-2.300000e-3,2.300000e-3,1.000000,1.750400,0.770600)"
     gradientUnits="userSpaceOnUse"
     id="linearGradient24278"
     xlink:href="#aigrd24"
     inkscape:collect="always" /><linearGradient
     y2="18.8912"
     x2="21.1782"
     y1="7.1201"
     x1="21.1782"
     gradientTransform="matrix(1.000000,-2.300000e-3,2.300000e-3,1.000000,1.750400,0.770600)"
     gradientUnits="userSpaceOnUse"
     id="linearGradient24281"
     xlink:href="#aigrd23"
     inkscape:collect="always" /><linearGradient
     y2="5.0770998"
     x2="33.023399"
     y1="5.0770998"
     x1="14.700200"
     gradientUnits="userSpaceOnUse"
     id="aigrd22">
				<stop
   id="stop22323"
   style="stop-color:#EBEBEB"
   offset="0" />

				<stop
   id="stop22325"
   style="stop-color:#EAEAEA"
   offset="1" />

			</linearGradient><linearGradient
     gradientTransform="translate(2.000000,0.500000)"
     y2="5.0771"
     x2="33.0234"
     y1="5.0771"
     x1="14.7002"
     gradientUnits="userSpaceOnUse"
     id="linearGradient24289"
     xlink:href="#aigrd22"
     inkscape:collect="always" /><linearGradient
     y2="10.313800"
     x2="36.129101"
     y1="20.447300"
     x1="27.521500"
     gradientUnits="userSpaceOnUse"
     id="aigrd21">
				<stop
   id="stop22314"
   style="stop-color:#9F9F9F"
   offset="0" />

				<stop
   id="stop22316"
   style="stop-color:#828282"
   offset="1" />

			</linearGradient><linearGradient
     gradientTransform="translate(2.000000,0.500000)"
     y2="10.3138"
     x2="36.1291"
     y1="20.4473"
     x1="27.5215"
     gradientUnits="userSpaceOnUse"
     id="linearGradient24297"
     xlink:href="#aigrd21"
     inkscape:collect="always" /><linearGradient
     y2="14.983600"
     x2="29.891100"
     y1="13.839800"
     x1="14.011200"
     gradientUnits="userSpaceOnUse"
     id="aigrd20">
				<stop
   id="stop22305"
   style="stop-color:#F8F8F8"
   offset="0" />

				<stop
   id="stop22307"
   style="stop-color:#C9C9C9"
   offset="1" />

			</linearGradient><linearGradient
     gradientTransform="translate(2.000000,0.500000)"
     y2="14.9836"
     x2="29.8911"
     y1="13.8398"
     x1="14.0112"
     gradientUnits="userSpaceOnUse"
     id="linearGradient24305"
     xlink:href="#aigrd20"
     inkscape:collect="always" /><linearGradient
     id="aigrd9"
     gradientUnits="userSpaceOnUse"
     x1="10.244600"
     y1="39.306599"
     x2="18.507500"
     y2="31.208500">
			<stop
   offset="0"
   style="stop-color:#DBDBDB"
   id="stop22194" />

			<stop
   offset="1"
   style="stop-color:#ACACAC"
   id="stop22196" />

		</linearGradient><linearGradient
     id="aigrd10"
     gradientUnits="userSpaceOnUse"
     x1="9.8895998"
     y1="40.302700"
     x2="17.351299"
     y2="31.518400">
			<stop
   offset="0"
   style="stop-color:#9F9F9F"
   id="stop22201" />

			<stop
   offset="1"
   style="stop-color:#828282"
   id="stop22203" />

		</linearGradient><linearGradient
     id="aigrd11"
     gradientUnits="userSpaceOnUse"
     x1="2.7651000"
     y1="35.448200"
     x2="22.361799"
     y2="35.448200">
			<stop
   offset="0"
   style="stop-color:#EBEBEB"
   id="stop22208" />

			<stop
   offset="1"
   style="stop-color:#EAEAEA"
   id="stop22210" />

		</linearGradient><linearGradient
     gradientTransform="translate(2.000000,0.500000)"
     y2="35.4482"
     x2="22.3618"
     y1="35.4482"
     x1="2.7651"
     gradientUnits="userSpaceOnUse"
     id="linearGradient24373"
     xlink:href="#aigrd11"
     inkscape:collect="always" /><linearGradient
     gradientTransform="translate(2.000000,0.500000)"
     y2="31.5184"
     x2="17.3513"
     y1="40.3027"
     x1="9.8896"
     gradientUnits="userSpaceOnUse"
     id="linearGradient24376"
     xlink:href="#aigrd10"
     inkscape:collect="always" /><linearGradient
     gradientTransform="translate(2.000000,0.500000)"
     y2="31.2085"
     x2="18.5075"
     y1="39.3066"
     x1="10.2446"
     gradientUnits="userSpaceOnUse"
     id="linearGradient24379"
     xlink:href="#aigrd9"
     inkscape:collect="always" /><linearGradient
     id="aigrd1"
     gradientUnits="userSpaceOnUse"
     x1="13.387200"
     y1="26.143600"
     x2="39.688499"
     y2="26.143600"
     gradientTransform="matrix(0.997000,7.730000e-2,-7.730000e-2,0.997000,1.203400,-3.003600)">
			<stop
   offset="0"
   style="stop-color:#EBEBEB"
   id="stop22121" />

			<stop
   offset="1"
   style="stop-color:#EAEAEA"
   id="stop22123" />

		</linearGradient><linearGradient
     id="aigrd2"
     gradientUnits="userSpaceOnUse"
     x1="14.072800"
     y1="32.205101"
     x2="27.986200"
     y2="33.207199"
     gradientTransform="matrix(0.997000,7.730000e-2,-7.730000e-2,0.997000,1.203400,-3.003600)">
			<stop
   offset="0"
   style="stop-color:#F8F8F8"
   id="stop22128" />

			<stop
   offset="1"
   style="stop-color:#C9C9C9"
   id="stop22130" />

		</linearGradient><linearGradient
     id="aigrd3"
     gradientUnits="userSpaceOnUse"
     x1="30.713900"
     y1="34.670898"
     x2="39.295200"
     y2="24.568399"
     gradientTransform="matrix(0.997000,7.730000e-2,-7.730000e-2,0.997000,1.203400,-3.003600)">
			<stop
   offset="0"
   style="stop-color:#9F9F9F"
   id="stop22135" />

			<stop
   offset="1"
   style="stop-color:#828282"
   id="stop22137" />

		</linearGradient><linearGradient
     id="aigrd4"
     gradientUnits="userSpaceOnUse"
     x1="21.110399"
     y1="32.287102"
     x2="26.002001"
     y2="32.287102">
			<stop
   offset="0"
   style="stop-color:#2A2A2A"
   id="stop22152" />

			<stop
   offset="0.4743"
   style="stop-color:#585858"
   id="stop22154" />

			<stop
   offset="1"
   style="stop-color:#878787"
   id="stop22156" />

		</linearGradient><linearGradient
     id="aigrd5"
     gradientUnits="userSpaceOnUse"
     x1="36.438499"
     y1="25.446301"
     x2="32.953800"
     y2="31.967699">
			<stop
   offset="0"
   style="stop-color:#FFFFFF"
   id="stop22165" />

			<stop
   offset="1"
   style="stop-color:#FFFFFF"
   id="stop22167" />

		</linearGradient><linearGradient
     id="aigrd6"
     gradientUnits="userSpaceOnUse"
     x1="36.438499"
     y1="24.493200"
     x2="32.953800"
     y2="31.014601">
			<stop
   offset="0"
   style="stop-color:#FFFFFF"
   id="stop22172" />

			<stop
   offset="1"
   style="stop-color:#FFFFFF"
   id="stop22174" />

		</linearGradient><linearGradient
     id="aigrd7"
     gradientUnits="userSpaceOnUse"
     x1="36.439499"
     y1="25.138700"
     x2="32.954300"
     y2="31.660999">
			<stop
   offset="0"
   style="stop-color:#000000"
   id="stop22179" />

			<stop
   offset="1"
   style="stop-color:#6A6A6A"
   id="stop22181" />

		</linearGradient><linearGradient
     id="aigrd8"
     gradientUnits="userSpaceOnUse"
     x1="36.439499"
     y1="24.185499"
     x2="32.954300"
     y2="30.707800">
			<stop
   offset="0"
   style="stop-color:#000000"
   id="stop22186" />

			<stop
   offset="1"
   style="stop-color:#6A6A6A"
   id="stop22188" />

		</linearGradient><linearGradient
     gradientTransform="translate(2.000000,0.500000)"
     y2="30.7078"
     x2="32.9543"
     y1="24.1855"
     x1="36.4395"
     gradientUnits="userSpaceOnUse"
     id="linearGradient24423"
     xlink:href="#aigrd8"
     inkscape:collect="always" /><linearGradient
     gradientTransform="translate(2.000000,0.500000)"
     y2="31.661"
     x2="32.9543"
     y1="25.1387"
     x1="36.4395"
     gradientUnits="userSpaceOnUse"
     id="linearGradient24426"
     xlink:href="#aigrd7"
     inkscape:collect="always" /><linearGradient
     gradientTransform="translate(2.000000,0.500000)"
     y2="31.0146"
     x2="32.9538"
     y1="24.4932"
     x1="36.4385"
     gradientUnits="userSpaceOnUse"
     id="linearGradient24429"
     xlink:href="#aigrd6"
     inkscape:collect="always" /><linearGradient
     gradientTransform="translate(2.000000,0.500000)"
     y2="31.9677"
     x2="32.9538"
     y1="25.4463"
     x1="36.4385"
     gradientUnits="userSpaceOnUse"
     id="linearGradient24432"
     xlink:href="#aigrd5"
     inkscape:collect="always" /><linearGradient
     gradientTransform="translate(2.000000,0.500000)"
     y2="32.2871"
     x2="26.002"
     y1="32.2871"
     x1="21.1104"
     gradientUnits="userSpaceOnUse"
     id="linearGradient24437"
     xlink:href="#aigrd4"
     inkscape:collect="always" /><linearGradient
     y2="24.5684"
     x2="39.2952"
     y1="34.6709"
     x1="30.7139"
     gradientTransform="matrix(0.997000,7.730000e-2,-7.730000e-2,0.997000,3.203400,-2.503600)"
     gradientUnits="userSpaceOnUse"
     id="linearGradient24445"
     xlink:href="#aigrd3"
     inkscape:collect="always" /><linearGradient
     y2="33.2072"
     x2="27.9862"
     y1="32.2051"
     x1="14.0728"
     gradientTransform="matrix(0.997000,7.730000e-2,-7.730000e-2,0.997000,3.203400,-2.503600)"
     gradientUnits="userSpaceOnUse"
     id="linearGradient24448"
     xlink:href="#aigrd2"
     inkscape:collect="always" /><linearGradient
     y2="26.1436"
     x2="39.6885"
     y1="26.1436"
     x1="13.3872"
     gradientTransform="matrix(0.997000,7.730000e-2,-7.730000e-2,0.997000,3.203400,-2.503600)"
     gradientUnits="userSpaceOnUse"
     id="linearGradient24451"
     xlink:href="#aigrd1"
     inkscape:collect="always" /><linearGradient
     y2="31.645500"
     x2="12.463100"
     y1="33.472698"
     x1="11.326700"
     gradientUnits="userSpaceOnUse"
     id="aigrd17">
				<stop
   id="stop22264"
   style="stop-color:#DBDBDB"
   offset="0" />

				<stop
   id="stop22266"
   style="stop-color:#ACACAC"
   offset="1" />

			</linearGradient><linearGradient
     gradientTransform="translate(2.000000,0.500000)"
     y2="31.6455"
     x2="12.4631"
     y1="33.4727"
     x1="11.3267"
     gradientUnits="userSpaceOnUse"
     id="linearGradient24465"
     xlink:href="#aigrd17"
     inkscape:collect="always" /><linearGradient
     y2="30.978100"
     x2="13.897300"
     y1="33.298801"
     x1="11.529300"
     gradientUnits="userSpaceOnUse"
     id="aigrd16">
				<stop
   id="stop22255"
   style="stop-color:#686868"
   offset="0" />

				<stop
   id="stop22257"
   style="stop-color:#6D6D6D"
   offset="1" />

			</linearGradient><linearGradient
     gradientTransform="translate(2.000000,0.500000)"
     y2="30.9781"
     x2="13.8973"
     y1="33.2988"
     x1="11.5293"
     gradientUnits="userSpaceOnUse"
     id="linearGradient24473"
     xlink:href="#aigrd16"
     inkscape:collect="always" /><linearGradient
     y2="35.876499"
     x2="17.895500"
     y1="38.442402"
     x1="15.277300"
     gradientUnits="userSpaceOnUse"
     id="aigrd15">
				<stop
   id="stop22246"
   style="stop-color:#DBDBDB"
   offset="0" />

				<stop
   id="stop22248"
   style="stop-color:#ACACAC"
   offset="1" />

			</linearGradient><linearGradient
     gradientTransform="translate(2.000000,0.500000)"
     y2="35.8765"
     x2="17.8955"
     y1="38.4424"
     x1="15.2773"
     gradientUnits="userSpaceOnUse"
     id="linearGradient24481"
     xlink:href="#aigrd15"
     inkscape:collect="always" /><linearGradient
     y2="36.228298"
     x2="18.241501"
     y1="39.132801"
     x1="15.277800"
     gradientUnits="userSpaceOnUse"
     id="aigrd14">
				<stop
   id="stop22237"
   style="stop-color:#686868"
   offset="0" />

				<stop
   id="stop22239"
   style="stop-color:#6D6D6D"
   offset="1" />

			</linearGradient><linearGradient
     gradientTransform="translate(2.000000,0.500000)"
     y2="36.2283"
     x2="18.2415"
     y1="39.1328"
     x1="15.2778"
     gradientUnits="userSpaceOnUse"
     id="linearGradient24489"
     xlink:href="#aigrd14"
     inkscape:collect="always" /><linearGradient
     y2="32.361198"
     x2="11.788500"
     y1="36.094700"
     x1="7.9790001"
     gradientUnits="userSpaceOnUse"
     id="aigrd13">
				<stop
   id="stop22228"
   style="stop-color:#DBDBDB"
   offset="0" />

				<stop
   id="stop22230"
   style="stop-color:#ACACAC"
   offset="1" />

			</linearGradient><linearGradient
     gradientTransform="translate(2.000000,0.500000)"
     y2="32.3612"
     x2="11.7885"
     y1="36.0947"
     x1="7.979"
     gradientUnits="userSpaceOnUse"
     id="linearGradient24497"
     xlink:href="#aigrd13"
     inkscape:collect="always" /><linearGradient
     y2="32.884102"
     x2="12.259100"
     y1="36.923801"
     x1="8.1372004"
     gradientUnits="userSpaceOnUse"
     id="aigrd12">
				<stop
   id="stop22219"
   style="stop-color:#686868"
   offset="0" />

				<stop
   id="stop22221"
   style="stop-color:#6D6D6D"
   offset="1" />

			</linearGradient><linearGradient
     gradientTransform="translate(2.000000,0.500000)"
     y2="32.8841"
     x2="12.2591"
     y1="36.9238"
     x1="8.1372"
     gradientUnits="userSpaceOnUse"
     id="linearGradient24505"
     xlink:href="#aigrd12"
     inkscape:collect="always" /><linearGradient
     id="aigrd25"
     gradientUnits="userSpaceOnUse"
     x1="21.680700"
     y1="6.6269999"
     x2="21.680700"
     y2="11.332400"
     gradientTransform="matrix(1.000000,-2.300000e-3,2.300000e-3,1.000000,-0.249600,0.270600)">
					<stop
   offset="0"
   style="stop-color:#E7EBEF"
   id="stop22354" />

					<stop
   offset="1"
   style="stop-color:#52699F"
   id="stop22356" />

				</linearGradient><linearGradient
     y2="11.3324"
     x2="21.6807"
     y1="6.627"
     x1="21.6807"
     gradientTransform="matrix(1.000000,-2.300000e-3,2.300000e-3,1.000000,1.750400,0.770600)"
     gradientUnits="userSpaceOnUse"
     id="linearGradient24513"
     xlink:href="#aigrd25"
     inkscape:collect="always" /><linearGradient
     y2="17.6041"
     x2="29.1478"
     y1="18.3115"
     x1="28.5469"
     gradientUnits="userSpaceOnUse"
     id="linearGradient24613"
     xlink:href="#aigrd26"
     inkscape:collect="always" /><linearGradient
     y2="15.784"
     x2="29.4527"
     y1="16.4917"
     x1="28.8516"
     gradientUnits="userSpaceOnUse"
     id="linearGradient24615"
     xlink:href="#aigrd27"
     inkscape:collect="always" /><linearGradient
     y2="13.9656"
     x2="29.7603"
     y1="14.6733"
     x1="29.1592"
     gradientUnits="userSpaceOnUse"
     id="linearGradient24617"
     xlink:href="#aigrd28"
     inkscape:collect="always" /><linearGradient
     y2="12.1469"
     x2="30.0656"
     y1="12.853"
     x1="29.4658"
     gradientUnits="userSpaceOnUse"
     id="linearGradient24619"
     xlink:href="#aigrd29"
     inkscape:collect="always" /><linearGradient
     y2="10.3276"
     x2="30.3723"
     y1="11.0337"
     x1="29.7725"
     gradientUnits="userSpaceOnUse"
     id="linearGradient24621"
     xlink:href="#aigrd30"
     inkscape:collect="always" /><linearGradient
     y2="8.508"
     x2="30.6782"
     y1="9.2144"
     x1="30.0781"
     gradientUnits="userSpaceOnUse"
     id="linearGradient24623"
     xlink:href="#aigrd31"
     inkscape:collect="always" /><linearGradient
     y2="8.685"
     x2="30.7971"
     y1="9.1934"
     x1="30.3652"
     gradientUnits="userSpaceOnUse"
     id="linearGradient24661"
     xlink:href="#aigrd32"
     inkscape:collect="always" /><linearGradient
     y2="10.5048"
     x2="30.4982"
     y1="11.0132"
     x1="30.0664"
     gradientUnits="userSpaceOnUse"
     id="linearGradient24663"
     xlink:href="#aigrd33"
     inkscape:collect="always" /><linearGradient
     y2="12.3251"
     x2="30.2013"
     y1="12.8335"
     x1="29.7695"
     gradientUnits="userSpaceOnUse"
     id="linearGradient24665"
     xlink:href="#aigrd34"
     inkscape:collect="always" /><linearGradient
     y2="14.1445"
     x2="29.9029"
     y1="14.6533"
     x1="29.4707"
     gradientUnits="userSpaceOnUse"
     id="linearGradient24667"
     xlink:href="#aigrd35"
     inkscape:collect="always" /><linearGradient
     y2="15.9648"
     x2="29.6041"
     y1="16.4736"
     x1="29.1719"
     gradientUnits="userSpaceOnUse"
     id="linearGradient24669"
     xlink:href="#aigrd36"
     inkscape:collect="always" /><linearGradient
     y2="17.7841"
     x2="29.3072"
     y1="18.293"
     x1="28.875"
     gradientUnits="userSpaceOnUse"
     id="linearGradient24671"
     xlink:href="#aigrd37"
     inkscape:collect="always" /></defs>
<sodipodi:namedview
   inkscape:current-layer="svg22109"
   inkscape:window-y="240"
   inkscape:window-x="456"
   inkscape:cy="22.232789"
   inkscape:cx="25.32096"
   inkscape:zoom="1"
   id="base"
   pagecolor="#ffffff"
   bordercolor="#666666"
   borderopacity="0.15294118"
   inkscape:pageopacity="0.0"
   inkscape:pageshadow="2"
   inkscape:window-width="810"
   inkscape:window-height="670"
   inkscape:showpageshadow="false" />

	
	
	<g
   id="g24709">
  
  
  <path
   sodipodi:nodetypes="ccccccccccccccccccccsccccccccccccc"
   id="path22118"
   d="M 40.200000,23.300000 C 39.700665,23.197119 27.600000,19.800000 27.000000,19.600000 C 26.400000,19.400000 25.600000,19.400000 25.300000,19.500000 C 25.000000,19.600000 15.000000,25.400000 14.400000,25.700000 C 14.300000,25.700000 14.300000,25.800000 14.200000,25.900000 C 13.500000,26.500000 13.500000,27.400000 13.500000,27.400000 C 13.500000,27.400000 13.500000,27.400000 13.500000,27.300000 C 13.500000,27.300000 13.500000,27.400000 13.500000,27.400000 L 13.700000,30.000000 C 13.700000,30.500000 13.800000,30.700000 14.200000,30.900000 C 14.200000,30.900000 27.200000,36.100000 28.700000,36.500000 C 28.800000,36.500000 28.800000,36.500000 28.900000,36.500000 C 28.900000,36.500000 28.900000,36.500000 28.900000,36.500000 C 29.600000,36.600000 29.800000,36.600000 30.100000,36.300000 C 30.100000,36.300000 30.200000,36.300000 30.200000,36.200000 C 30.500000,36.000000 40.400000,28.400000 40.700000,28.100000 C 41.000000,27.800000 41.000000,27.600000 41.100000,27.300000 C 41.100000,27.000000 41.300000,25.000000 41.300000,24.600000 C 41.300000,24.600000 41.300000,24.500000 41.300000,24.500000 L 41.300000,24.500000 C 41.300000,24.100000 40.946324,23.453770 40.200000,23.300000 z M 29.600000,36.100000 C 29.600000,36.100000 29.600000,36.100000 29.600000,36.100000 L 29.600000,36.100000 L 29.600000,36.100000 C 29.600000,36.100000 29.600000,36.100000 29.600000,36.200000 C 29.600000,36.200000 29.600000,36.100000 29.600000,36.100000 L 29.600000,36.100000 z M 39.900000,24.800000 C 40.300000,24.500000 40.500000,24.300000 40.500000,24.300000 C 40.500000,24.300000 40.200000,24.500000 39.800000,24.800000 C 39.100000,25.300000 38.200000,25.900000 37.200000,26.700000 C 38.900000,25.500000 40.400000,24.500000 40.800000,24.200000 C 40.700000,24.300000 40.400000,24.500000 39.900000,24.800000 z "
   style="fill:#000000;fill-rule:nonzero;stroke:#000000;stroke-width:2.9273000;stroke-linecap:round;stroke-linejoin:round;stroke-miterlimit:4.0000000" />
  <path
   sodipodi:nodetypes="cccccccscc"
   id="path22125"
   d="M 27.000000,19.700000 C 26.400000,19.500000 25.600000,19.500000 25.300000,19.600000 C 25.000000,19.700000 15.000000,25.400000 14.400000,25.800000 C 13.900000,26.100000 13.700000,26.700000 14.400000,27.000000 C 15.100000,27.200000 28.200000,31.500000 28.700000,31.600000 C 29.300000,31.800000 30.200000,31.800000 30.500000,31.500000 C 30.800000,31.300000 40.515496,24.572314 40.815496,24.272314 C 41.115496,23.972314 40.520526,23.440175 40.100000,23.300000 C 39.620526,23.140175 27.500000,19.800000 26.900000,19.600000 L 27.000000,19.700000 z "
   style="fill:url(#linearGradient24451);fill-rule:nonzero;stroke:none;stroke-miterlimit:4.0000000" />
  <path
   id="path22132"
   d="M 13.600000,27.500000 C 13.600000,27.000000 13.900000,26.700000 14.300000,26.800000 C 14.600000,26.900000 28.700000,31.500000 29.200000,31.900000 C 29.700000,32.200000 30.000000,32.400000 30.000000,32.800000 C 30.000000,33.200000 29.800000,35.500000 29.800000,35.900000 C 29.800000,36.300000 29.500000,36.700000 28.900000,36.500000 C 27.400000,36.100000 14.400000,30.900000 14.400000,30.900000 C 14.000000,30.700000 13.900000,30.500000 13.900000,30.000000 L 13.600000,27.500000 z "
   style="fill:url(#linearGradient24448);fill-rule:nonzero;stroke:none;stroke-miterlimit:4.0000000" />
  <path
   sodipodi:nodetypes="cccccccccc"
   id="path22139"
   d="M 30.300000,36.300000 C 30.000000,36.500000 29.677340,36.266854 29.677340,35.700563 C 29.677340,35.200563 29.800000,33.100000 29.800000,32.700000 C 29.800000,32.300000 30.000000,31.900000 30.300000,31.700000 C 30.600000,31.500000 40.400000,24.600000 40.800000,24.300000 C 41.200000,24.000000 41.400000,24.600000 41.300000,24.900000 C 41.300000,25.200000 41.100000,27.300000 41.100000,27.600000 C 41.100000,27.900000 41.000000,28.100000 40.700000,28.300000 C 40.400000,28.600000 30.400000,36.100000 30.200000,36.400000 L 30.300000,36.300000 z "
   style="fill:url(#linearGradient24445);fill-rule:nonzero;stroke:none;stroke-miterlimit:4.0000000" />
  <path
   d="M 14.200000,26.600000 C 14.100000,26.600000 14.200000,26.100000 14.500000,25.800000 C 13.600000,26.400000 13.600000,27.500000 13.600000,27.500000 C 13.600000,27.500000 13.700000,27.000000 14.200000,27.000000 C 16.000000,27.600000 28.400000,31.900000 28.900000,32.100000 C 29.400000,32.300000 29.467417,32.833709 29.467417,33.333709 L 29.689515,36.123223 L 30.100000,33.400000 C 30.100000,32.900000 30.300000,32.100000 30.900000,31.700000 C 31.200000,31.500000 38.757025,26.156198 40.891736,24.249587 C 38.863636,25.329752 30.837119,31.600000 29.732583,31.600000 C 28.881845,31.600000 14.300000,26.600000 14.200000,26.600000 z "
   id="path22143"
   sodipodi:nodetypes="ccccccccccsc"
   style="fill:#ffffff;fill-rule:nonzero;stroke:none;stroke-miterlimit:4.0000000" />
  <path
   d="M 39.700000,25.100000 C 40.200000,24.700000 40.600000,24.500000 40.600000,24.500000 C 40.600000,24.500000 40.300000,24.700000 39.700000,25.100000 z "
   id="path22145"
   style="fill:#ffffff;fill-rule:nonzero;stroke:none;stroke-miterlimit:4.0000000" />
  <path
   sodipodi:nodetypes="cccc"
   id="path22147"
   d="M 30.376777,36.234272 C 30.076777,36.534272 29.677903,36.766291 28.966854,36.522660 C 29.577340,36.566291 29.711049,35.923223 29.711049,35.923223 C 29.711049,35.923223 29.788951,36.466291 30.376777,36.234272 z "
   style="fill:#848484;fill-rule:nonzero;stroke:none;stroke-miterlimit:4.0000000" />
  <path
   sodipodi:nodetypes="cccc"
   id="path22149"
   d="M 40.577893,24.434298 C 41.079339,24.192975 41.289669,24.453926 41.305165,24.882645 C 41.377479,24.441322 41.361983,23.648347 40.112190,23.301860 C 40.112190,23.301860 41.115496,23.798554 40.577893,24.434298 z "
   style="fill:#545454;fill-rule:nonzero;stroke:none;stroke-miterlimit:4.0000000" />
  <path
   id="path22158"
   d="M 23.100000,31.600000 L 23.100000,32.200000 L 28.000000,33.900000 L 28.000000,33.400000 L 23.100000,31.600000 L 23.100000,31.600000 z "
   style="fill:url(#linearGradient24437);fill-rule:nonzero;stroke:none;stroke-miterlimit:4.0000000" />
  <path
   id="path22160"
   d="M 23.100000,32.200000 L 22.800000,32.400000 L 22.800000,31.200000 L 28.200000,33.100000 L 28.000000,33.400000 L 23.100000,31.600000 L 23.100000,32.200000 z "
   style="opacity:0.21999998;fill:#000000;fill-rule:nonzero;stroke:none;stroke-miterlimit:4.0000000" />
  <path
   id="path22162"
   d="M 28.200000,34.300000 L 28.200000,33.100000 L 28.000000,33.400000 L 28.000000,33.900000 L 23.100000,32.200000 L 22.800000,32.400000 L 28.200000,34.300000 L 28.200000,34.300000 z "
   style="opacity:0.72000003;fill:#ffffff;fill-rule:nonzero;stroke:none;stroke-miterlimit:4.0000000" />
  <path
   sodipodi:nodetypes="cccccc"
   id="path22169"
   d="M 41.163281,26.721094 L 30.500000,34.500000 L 30.500000,34.900000 L 41.135937,27.017187 L 41.300000,26.600000 L 41.163281,26.721094 z "
   style="opacity:0.12999995;fill:url(#linearGradient24432);fill-rule:nonzero;stroke:none;stroke-miterlimit:4.0000000" />
  <path
   sodipodi:nodetypes="ccccc"
   id="path22176"
   d="M 41.245312,25.623438 L 30.400000,33.500000 L 30.400000,33.900000 L 41.227344,25.888281 L 41.245312,25.623438 z "
   style="opacity:0.12999995;fill:url(#linearGradient24429);fill-rule:nonzero;stroke:none;stroke-miterlimit:4.0000000" />
  <path
   id="path22183"
   d="M 41.300000,26.300000 L 30.400000,34.200000 L 30.400000,34.600000 L 41.200000,26.600000 L 41.200000,26.300000 L 41.300000,26.300000 z "
   style="opacity:0.12999995;fill:url(#linearGradient24426);fill-rule:nonzero;stroke:none;stroke-miterlimit:4.0000000" />
  <path
   sodipodi:nodetypes="ccccc"
   id="path22190"
   d="M 41.300000,25.300000 L 30.400000,33.200000 L 30.400000,33.600000 L 41.250781,25.550000 L 41.300000,25.300000 z "
   style="opacity:0.12999995;fill:url(#linearGradient24423);fill-rule:nonzero;stroke:none;stroke-miterlimit:4.0000000" />
  <path
   id="path22198"
   d="M 24.300000,35.400000 L 11.200000,30.400000 C 10.800000,31.300000 10.200000,32.100000 9.5000000,32.700000 L 9.5000000,32.700000 C 9.2000000,32.600000 8.7000000,32.600000 8.5000000,32.900000 L 6.2000000,34.500000 C 6.0000000,34.700000 6.0000000,34.900000 6.2000000,35.100000 L 6.2000000,35.100000 C 5.3000000,35.600000 4.7000000,35.800000 4.7000000,35.800000 C 4.1000000,36.400000 5.0000000,37.300000 5.0000000,37.300000 L 18.100000,43.100000 C 19.300000,43.600000 23.900000,40.300000 24.600000,39.000000 C 25.400000,37.700000 24.200000,35.300000 24.200000,35.300000 L 24.300000,35.400000 z "
   style="fill:url(#linearGradient24379);fill-rule:nonzero;stroke:#000000;stroke-width:2.9273000;stroke-linecap:round;stroke-linejoin:round;stroke-miterlimit:4.0000000" />
  <path
   id="path22205"
   d="M 5.1000000,37.400000 L 18.200000,43.200000 C 19.400000,43.700000 24.000000,40.400000 24.700000,39.100000 C 25.500000,37.800000 24.300000,35.400000 24.300000,35.400000 L 11.200000,30.400000 C 9.5000000,34.000000 4.7000000,35.900000 4.7000000,35.900000 C 4.1000000,36.500000 5.0000000,37.400000 5.0000000,37.400000 L 5.1000000,37.400000 z "
   style="fill:url(#linearGradient24376);fill-rule:nonzero;stroke:none;stroke-miterlimit:4.0000000" />
  <path
   id="path22212"
   d="M 24.400000,35.400000 C 23.400000,38.200000 18.500000,41.600000 18.500000,41.600000 L 4.8000000,35.800000 C 4.8000000,35.800000 9.2000000,34.200000 11.300000,30.300000 L 24.400000,35.300000 L 24.400000,35.400000 z "
   style="fill:url(#linearGradient24373);fill-rule:nonzero;stroke:none;stroke-miterlimit:4.0000000" />
  <path
   id="path22214"
   d="M 24.400000,35.400000 C 23.600000,37.600000 18.900000,41.300000 18.400000,41.300000 C 17.900000,41.300000 4.8000000,35.800000 4.8000000,35.800000 L 18.000000,41.500000 C 18.000000,41.500000 18.300000,41.700000 18.300000,41.900000 L 18.500000,43.100000 L 18.600000,42.000000 C 18.600000,42.000000 18.600000,41.500000 18.800000,41.400000 C 18.800000,41.400000 23.700000,37.700000 24.400000,35.300000 L 24.400000,35.400000 z "
   style="fill:#ffffff;fill-rule:nonzero;stroke:none;stroke-miterlimit:4.0000000" />
  <path
   style="fill:url(#linearGradient24505);fill-rule:nonzero;stroke:none;stroke-miterlimit:4.0000000"
   d="M 6.1000000,35.200000 C 5.8000000,35.400000 5.9000000,35.700000 6.2000000,35.800000 L 13.900000,38.900000 C 14.200000,39.000000 14.700000,38.900000 15.000000,38.700000 L 17.200000,36.600000 C 17.500000,36.400000 17.400000,36.000000 17.100000,35.900000 L 9.8000000,33.100000 C 9.5000000,33.000000 9.0000000,33.000000 8.7000000,33.300000 L 6.3000000,35.200000 L 6.1000000,35.200000 z "
   id="path22223" />
  <path
   style="fill:url(#linearGradient24497);fill-rule:nonzero;stroke:none;stroke-miterlimit:4.0000000"
   d="M 6.3000000,34.600000 C 6.0000000,34.800000 6.0000000,35.000000 6.3000000,35.200000 L 13.400000,38.100000 C 13.700000,38.200000 14.200000,38.100000 14.400000,37.900000 L 16.400000,36.000000 C 16.600000,35.800000 16.600000,35.500000 16.300000,35.400000 L 9.5000000,32.800000 C 9.2000000,32.700000 8.7000000,32.800000 8.5000000,33.000000 L 6.3000000,34.700000 L 6.3000000,34.600000 z "
   id="path22232" />
  <path
   style="fill:url(#linearGradient24489);fill-rule:nonzero;stroke:none;stroke-miterlimit:4.0000000"
   d="M 18.800000,36.600000 C 18.500000,36.500000 18.000000,36.600000 17.700000,36.800000 L 15.500000,39.000000 C 15.200000,39.300000 15.300000,39.600000 15.600000,39.700000 L 17.700000,40.600000 C 18.000000,40.700000 18.500000,40.700000 18.800000,40.400000 L 21.100000,38.100000 C 21.400000,37.800000 21.300000,37.500000 20.900000,37.400000 L 18.700000,36.500000 L 18.800000,36.600000 z "
   id="path22241" />
  <path
   style="fill:url(#linearGradient24481);fill-rule:nonzero;stroke:none;stroke-miterlimit:4.0000000"
   d="M 18.700000,36.200000 C 18.400000,36.100000 17.900000,36.200000 17.700000,36.400000 L 15.700000,38.300000 C 15.500000,38.500000 15.500000,38.800000 15.800000,39.000000 L 17.700000,39.800000 C 18.000000,39.900000 18.400000,39.800000 18.700000,39.600000 L 20.700000,37.600000 C 20.900000,37.400000 20.900000,37.100000 20.600000,37.000000 L 18.700000,36.200000 z "
   id="path22250" />
  <path
   style="fill:url(#linearGradient24473);fill-rule:nonzero;stroke:none;stroke-miterlimit:4.0000000"
   d="M 11.300000,31.100000 C 11.000000,31.000000 10.600000,31.100000 10.400000,31.400000 L 10.400000,31.500000 C 10.200000,31.800000 10.300000,32.200000 10.700000,32.300000 L 17.500000,35.000000 C 17.800000,35.100000 18.200000,35.000000 18.400000,34.700000 L 18.500000,34.500000 C 18.700000,34.200000 18.600000,33.900000 18.200000,33.700000 L 11.300000,31.100000 L 11.300000,31.100000 z "
   id="path22259" />
  <path
   style="fill:url(#linearGradient24465);fill-rule:nonzero;stroke:none;stroke-miterlimit:4.0000000"
   d="M 11.300000,30.700000 C 11.000000,30.600000 10.600000,30.700000 10.400000,31.000000 L 10.400000,31.100000 C 10.200000,31.400000 10.400000,31.700000 10.700000,31.800000 L 17.200000,34.400000 C 17.500000,34.500000 17.900000,34.400000 18.100000,34.100000 L 18.200000,33.900000 C 18.400000,33.600000 18.200000,33.300000 17.900000,33.200000 L 11.400000,30.700000 L 11.300000,30.700000 z "
   id="path22268" />
  <path
   id="path22270"
   d="M 23.400000,35.700000 L 22.400000,37.100000 L 18.200000,35.400000 L 19.200000,34.100000 L 23.400000,35.600000 L 23.400000,35.700000 z "
   style="fill:#f8f8f8;fill-rule:nonzero;stroke:none;stroke-miterlimit:4.0000000" />
  <path
   id="path22272"
   d="M 18.200000,35.400000 L 19.200000,34.100000 L 23.400000,35.600000 L 23.100000,35.600000 L 19.200000,34.300000 L 18.100000,35.300000 L 18.200000,35.400000 z "
   style="fill:#c9c9c9;fill-rule:nonzero;stroke:none;stroke-miterlimit:4.0000000" />
  <path
   id="path22274"
   d="M 17.200000,34.500000 L 10.600000,31.800000 C 10.100000,31.500000 10.500000,31.000000 10.500000,31.000000 C 10.500000,31.000000 10.200000,31.500000 10.700000,31.700000 L 17.100000,34.200000 C 17.600000,34.400000 18.100000,33.900000 18.100000,33.900000 C 18.100000,33.900000 17.800000,34.600000 17.200000,34.400000 L 17.200000,34.500000 z "
   style="fill:#ffffff;fill-rule:nonzero;stroke:none;stroke-miterlimit:4.0000000" />
  <path
   id="path22276"
   d="M 13.600000,38.100000 L 6.4000000,35.200000 C 5.8000000,34.900000 6.3000000,34.600000 6.3000000,34.600000 C 6.3000000,34.600000 6.0000000,34.900000 6.5000000,35.100000 L 13.500000,37.900000 C 14.000000,38.100000 14.600000,37.700000 14.600000,37.700000 C 14.600000,37.700000 14.200000,38.200000 13.600000,38.100000 L 13.600000,38.100000 z "
   style="fill:#ffffff;fill-rule:nonzero;stroke:none;stroke-miterlimit:4.0000000" />
  <path
   id="path22278"
   d="M 17.800000,39.900000 L 15.800000,39.000000 C 15.200000,38.700000 15.700000,38.400000 15.700000,38.400000 C 15.700000,38.400000 15.400000,38.700000 16.000000,38.900000 L 17.800000,39.700000 C 18.300000,39.900000 18.900000,39.500000 18.900000,39.500000 C 18.900000,39.500000 18.500000,40.000000 17.900000,39.900000 L 17.800000,39.900000 z "
   style="fill:#ffffff;fill-rule:nonzero;stroke:none;stroke-miterlimit:4.0000000" />
  <path
   sodipodi:type="arc"
   style="opacity:0.2;fill:black;fill-opacity:1;fill-rule:evenodd;stroke:none;stroke-width:1px;stroke-linecap:butt;stroke-linejoin:miter;stroke-opacity:1"
   id="path22565"
   sodipodi:cx="25.41165"
   sodipodi:cy="27.317127"
   sodipodi:rx="8.7946405"
   sodipodi:ry="4.9497476"
   d="M 34.20629 27.317127 A 8.7946405 4.9497476 0 1 1  16.617009,27.317127 A 8.7946405 4.9497476 0 1 1  34.20629 27.317127 z"
   transform="translate(1.734833,-2.560659)" />
  <path
   id="path22290"
   d="M 27.400000,20.500000 C 23.800000,20.500000 20.900000,21.800000 20.900000,23.400000 L 20.900000,24.200000 C 20.900000,25.800000 23.800000,27.100000 27.400000,27.100000 C 31.000000,27.100000 33.900000,25.800000 33.900000,24.200000 L 33.900000,23.400000 C 33.900000,21.800000 31.000000,20.500000 27.400000,20.500000 z "
   style="fill:url(#radialGradient24157);fill-rule:nonzero;stroke:#000000;stroke-width:1.8322001;stroke-linecap:round;stroke-linejoin:round;stroke-miterlimit:4.0000000" />
  <path
   id="path22292"
   d="M 27.400000,20.500000 C 23.800000,20.500000 20.900000,21.800000 20.900000,23.400000 L 20.900000,24.200000 C 20.900000,25.800000 23.800000,27.100000 27.400000,27.100000 C 31.000000,27.100000 33.900000,25.800000 33.900000,24.200000 L 33.900000,23.400000 C 33.900000,21.800000 31.000000,20.500000 27.400000,20.500000 z "
   style="fill:url(#radialGradient24154);fill-rule:nonzero;stroke:none;stroke-miterlimit:4.0000000" />
  <path
   id="path22294"
   d="M 20.900000,23.000000 C 21.100000,24.200000 22.500000,26.000000 28.500000,26.100000 C 23.900000,26.500000 20.300000,25.200000 20.900000,23.000000 z "
   style="fill:#b3b3b3;fill-rule:nonzero;stroke:none;stroke-miterlimit:4.0000000" />
  <path
   style="fill:#000000;fill-rule:nonzero;stroke:none;stroke-miterlimit:4.0000000"
   d="M 35.500000,7.7000000 C 35.600000,7.4000000 35.500000,7.1000000 35.300000,7.0000000 C 35.100000,7.0000000 35.000000,7.0000000 35.000000,7.0000000 C 35.000000,7.0000000 35.000000,7.0000000 35.000000,7.0000000 C 35.000000,7.0000000 34.700000,7.0000000 34.400000,6.9000000 L 18.000000,4.1000000 C 17.700000,4.0000000 17.200000,4.0000000 17.000000,4.0000000 C 16.800000,4.0000000 16.500000,4.0000000 16.300000,4.0000000 C 16.100000,4.0000000 16.000000,4.3000000 15.900000,4.6000000 L 13.700000,20.000000 C 13.700000,20.300000 13.900000,20.700000 14.200000,20.800000 L 29.900000,25.500000 C 30.200000,25.600000 30.500000,25.700000 30.500000,25.700000 C 30.500000,25.700000 30.500000,25.700000 30.500000,25.700000 C 30.500000,25.700000 30.600000,25.700000 30.800000,25.800000 C 31.000000,25.800000 31.200000,25.900000 31.200000,25.800000 C 31.300000,25.800000 31.400000,25.700000 31.500000,25.700000 C 31.600000,25.700000 31.800000,25.600000 31.800000,25.600000 C 31.800000,25.600000 32.000000,25.600000 32.100000,25.500000 C 32.300000,25.500000 32.500000,25.100000 32.600000,24.800000 L 35.500000,7.7000000 L 35.500000,7.7000000 z "
   id="path22298" />
  <path
   style="fill:none;fill-rule:nonzero;stroke:#000000;stroke-width:2.9273000;stroke-linecap:round;stroke-linejoin:round;stroke-miterlimit:4.0000000"
   d="M 35.500000,7.7000000 C 35.600000,7.4000000 35.500000,7.1000000 35.300000,7.0000000 C 35.100000,7.0000000 35.000000,7.0000000 35.000000,7.0000000 C 35.000000,7.0000000 35.000000,7.0000000 35.000000,7.0000000 C 35.000000,7.0000000 34.700000,7.0000000 34.400000,6.9000000 L 18.000000,4.1000000 C 17.700000,4.0000000 17.200000,4.0000000 17.000000,4.0000000 C 16.800000,4.0000000 16.500000,4.0000000 16.300000,4.0000000 C 16.100000,4.0000000 16.000000,4.3000000 15.900000,4.6000000 L 13.700000,20.000000 C 13.700000,20.300000 13.900000,20.700000 14.200000,20.800000 L 29.900000,25.500000 C 30.200000,25.600000 30.500000,25.700000 30.500000,25.700000 C 30.500000,25.700000 30.500000,25.700000 30.500000,25.700000 C 30.500000,25.700000 30.600000,25.700000 30.800000,25.800000 C 31.000000,25.800000 31.200000,25.900000 31.200000,25.800000 C 31.300000,25.800000 31.400000,25.700000 31.500000,25.700000 C 31.600000,25.700000 31.800000,25.600000 31.800000,25.600000 C 31.800000,25.600000 32.000000,25.600000 32.100000,25.500000 C 32.300000,25.500000 32.500000,25.100000 32.600000,24.800000 L 35.500000,7.7000000 L 35.500000,7.7000000 z "
   id="path22300" />
  <path
   style="fill:url(#linearGradient24305);fill-rule:nonzero;stroke:none;stroke-miterlimit:4.0000000"
   d="M 16.800000,4.2000000 C 16.400000,4.1000000 16.000000,4.4000000 15.900000,4.9000000 L 13.700000,19.900000 C 13.600000,20.300000 13.900000,20.800000 14.400000,20.900000 L 30.400000,25.600000 C 30.800000,25.700000 31.200000,25.500000 31.300000,25.000000 L 34.300000,7.9000000 C 34.300000,7.5000000 34.000000,7.1000000 33.600000,7.0000000 L 16.800000,4.2000000 z "
   id="path22309" />
  <path
   style="fill:url(#linearGradient24297);fill-rule:nonzero;stroke:none;stroke-miterlimit:4.0000000"
   d="M 32.700000,24.600000 C 32.600000,25.000000 32.200000,25.500000 31.800000,25.600000 C 31.400000,25.700000 31.100000,25.400000 31.200000,25.000000 L 34.200000,7.9000000 C 34.300000,7.5000000 34.700000,7.1000000 35.000000,7.1000000 C 35.300000,7.1000000 35.600000,7.5000000 35.500000,7.9000000 L 32.700000,24.600000 L 32.700000,24.600000 z "
   id="path22318" />
  <path
   style="fill:url(#linearGradient24289);fill-rule:nonzero;stroke:none;stroke-miterlimit:4.0000000"
   d="M 18.200000,4.1000000 C 17.800000,4.0000000 17.100000,4.0000000 16.700000,4.0000000 C 16.300000,4.0000000 16.400000,4.1000000 16.800000,4.2000000 L 33.600000,7.0000000 C 34.000000,7.1000000 34.700000,7.1000000 35.000000,7.1000000 C 35.300000,7.1000000 35.300000,7.0000000 34.800000,7.0000000 L 18.200000,4.1000000 z "
   id="path22327" />
  <path
   id="path22329"
   d="M 31.900000,25.600000 C 31.500000,25.800000 31.100000,25.800000 30.600000,25.600000 C 31.100000,25.500000 31.300000,25.100000 31.300000,25.100000 C 31.300000,25.100000 31.400000,25.700000 31.900000,25.600000 z "
   style="fill:#848484;fill-rule:nonzero;stroke:none;stroke-miterlimit:4.0000000" />
  <path
   id="path22331"
   d="M 33.600000,7.2000000 C 34.000000,7.3000000 34.300000,7.3000000 34.100000,8.3000000 L 31.600000,22.500000 L 31.300000,24.900000 L 31.900000,22.600000 L 34.500000,7.9000000 C 34.600000,7.4000000 34.900000,7.2000000 35.100000,7.1000000 L 16.800000,4.1000000 C 16.700000,4.1000000 16.700000,4.0000000 16.700000,4.0000000 C 16.300000,4.0000000 16.100000,4.4000000 16.000000,4.8000000 C 16.200000,4.5000000 16.300000,4.2000000 16.700000,4.3000000 L 33.700000,7.1000000 L 33.600000,7.2000000 z "
   style="fill:#ffffff;fill-rule:nonzero;stroke:none;stroke-miterlimit:4.0000000" />
  <path
   id="path22333"
   d="M 35.500000,7.9000000 C 35.500000,7.2000000 35.000000,7.1000000 35.000000,7.1000000 C 35.000000,7.1000000 35.100000,7.0000000 35.000000,7.0000000 C 35.300000,7.0000000 35.500000,7.4000000 35.400000,7.9000000 L 35.500000,7.9000000 z "
   style="fill:#545454;fill-rule:nonzero;stroke:none;stroke-miterlimit:4.0000000" />
  <path
   style="fill:url(#linearGradient24281);fill-rule:nonzero;stroke:none;stroke-miterlimit:4.0000000"
   d="M 28.200000,21.900000 L 15.400000,18.200000 L 17.100000,5.7000000 L 30.500000,8.0000000 L 28.100000,21.800000 L 28.200000,21.900000 z "
   id="path22342" />
  <path
   style="fill:url(#linearGradient24278);fill-rule:nonzero;stroke:none;stroke-miterlimit:4.0000000"
   d="M 28.300000,21.900000 L 15.600000,18.200000 L 17.300000,5.7000000 L 30.700000,8.0000000 L 28.300000,21.800000 L 28.300000,21.900000 z "
   id="path22349" />
  <path
   id="path22358"
   d="M 18.000000,6.5000000 C 17.900000,6.5000000 17.800000,6.6000000 17.800000,6.8000000 L 17.000000,12.700000 C 17.000000,12.800000 17.000000,12.900000 17.100000,13.000000 C 20.500000,13.000000 26.300000,11.400000 29.600000,9.9000000 C 29.700000,9.8000000 29.800000,9.7000000 29.800000,9.5000000 L 29.900000,8.9000000 C 29.900000,8.7000000 29.900000,8.6000000 29.800000,8.6000000 L 18.000000,6.5000000 z "
   style="opacity:0.57999998;fill:url(#linearGradient24513);fill-rule:nonzero;stroke:none;stroke-miterlimit:4.0000000" />
  <g
   id="g22368"
   transform="translate(2.000000,0.500000)"
   style="stroke-miterlimit:4.0000000;stroke:none;fill-rule:nonzero;fill:#dedede">
						<linearGradient
   id="aigrd26"
   gradientUnits="userSpaceOnUse"
   x1="28.546900"
   y1="18.311501"
   x2="29.147800"
   y2="17.604099">
							<stop
   offset="0"
   style="stop-color:#9F9F9F"
   id="stop22371" />

							<stop
   offset="1"
   style="stop-color:#828282"
   id="stop22373" />

						</linearGradient>

						<path
   style="fill:url(#linearGradient24613)"
   d="M 29.700000,18.000000 L 28.100000,17.600000 L 28.000000,18.000000 L 29.700000,17.900000 L 29.700000,18.000000 z "
   id="path22375" />

						<path
   d="M 29.600000,18.400000 L 29.700000,18.000000 L 28.000000,18.100000 L 29.600000,18.400000 L 29.600000,18.400000 z "
   id="path22377" />

					</g>
  <g
   id="g22379"
   transform="translate(2.000000,0.500000)"
   style="stroke-miterlimit:4.0000000;stroke:none;fill-rule:nonzero;fill:#dedede">
						<linearGradient
   id="aigrd27"
   gradientUnits="userSpaceOnUse"
   x1="28.851601"
   y1="16.491699"
   x2="29.452700"
   y2="15.784000">
							<stop
   offset="0"
   style="stop-color:#9F9F9F"
   id="stop22382" />

							<stop
   offset="1"
   style="stop-color:#828282"
   id="stop22384" />

						</linearGradient>

						<path
   style="fill:url(#linearGradient24615)"
   d="M 30.000000,16.200000 L 28.400000,15.800000 L 28.300000,16.200000 L 30.000000,16.100000 L 30.000000,16.200000 z "
   id="path22386" />

						<path
   d="M 29.900000,16.600000 L 30.000000,16.200000 L 28.300000,16.300000 L 29.900000,16.600000 L 29.900000,16.600000 z "
   id="path22388" />

					</g>
  <g
   id="g22390"
   transform="translate(2.000000,0.500000)"
   style="stroke-miterlimit:4.0000000;stroke:none;fill-rule:nonzero;fill:#dedede">
						<linearGradient
   id="aigrd28"
   gradientUnits="userSpaceOnUse"
   x1="29.159201"
   y1="14.673300"
   x2="29.760300"
   y2="13.965600">
							<stop
   offset="0"
   style="stop-color:#9F9F9F"
   id="stop22393" />

							<stop
   offset="1"
   style="stop-color:#828282"
   id="stop22395" />

						</linearGradient>

						<path
   style="fill:url(#linearGradient24617)"
   d="M 30.300000,14.400000 L 28.700000,14.000000 L 28.600000,14.400000 L 30.300000,14.300000 L 30.300000,14.400000 z "
   id="path22397" />

						<path
   d="M 30.200000,14.800000 L 30.300000,14.400000 L 28.600000,14.500000 L 30.200000,14.800000 L 30.200000,14.800000 z "
   id="path22399" />

					</g>
  <g
   id="g22401"
   transform="translate(2.000000,0.500000)"
   style="stroke-miterlimit:4.0000000;stroke:none;fill-rule:nonzero;fill:#dedede">
						<linearGradient
   id="aigrd29"
   gradientUnits="userSpaceOnUse"
   x1="29.465799"
   y1="12.853000"
   x2="30.065599"
   y2="12.146900">
							<stop
   offset="0"
   style="stop-color:#9F9F9F"
   id="stop22404" />

							<stop
   offset="1"
   style="stop-color:#828282"
   id="stop22406" />

						</linearGradient>

						<path
   style="fill:url(#linearGradient24619)"
   d="M 30.700000,12.600000 L 29.100000,12.200000 L 29.000000,12.600000 L 30.700000,12.500000 L 30.700000,12.600000 z "
   id="path22408" />

						<path
   d="M 30.500000,13.000000 L 30.600000,12.600000 L 29.000000,12.600000 L 30.600000,12.900000 L 30.500000,13.000000 z "
   id="path22410" />

					</g>
  <g
   id="g22412"
   transform="translate(2.000000,0.500000)"
   style="stroke-miterlimit:4.0000000;stroke:none;fill-rule:nonzero;fill:#dedede">
						<linearGradient
   id="aigrd30"
   gradientUnits="userSpaceOnUse"
   x1="29.772499"
   y1="11.033700"
   x2="30.372299"
   y2="10.327600">
							<stop
   offset="0"
   style="stop-color:#9F9F9F"
   id="stop22415" />

							<stop
   offset="1"
   style="stop-color:#828282"
   id="stop22417" />

						</linearGradient>

						<path
   style="fill:url(#linearGradient24621)"
   d="M 31.000000,10.800000 L 29.400000,10.400000 L 29.300000,10.800000 L 31.000000,10.700000 L 31.000000,10.800000 z "
   id="path22419" />

						<path
   d="M 30.800000,11.100000 L 30.900000,10.700000 L 29.200000,10.800000 L 30.800000,11.100000 L 30.800000,11.100000 z "
   id="path22421" />

					</g>
  <g
   id="g22423"
   transform="translate(2.000000,0.500000)"
   style="stroke-miterlimit:4.0000000;stroke:none;fill-rule:nonzero;fill:#dedede">
						<linearGradient
   id="aigrd31"
   gradientUnits="userSpaceOnUse"
   x1="30.078100"
   y1="9.2144003"
   x2="30.678200"
   y2="8.5080004">
							<stop
   offset="0"
   style="stop-color:#9F9F9F"
   id="stop22426" />

							<stop
   offset="1"
   style="stop-color:#828282"
   id="stop22428" />

						</linearGradient>

						<path
   style="fill:url(#linearGradient24623)"
   d="M 31.300000,8.9000000 L 29.700000,8.5000000 L 29.600000,9.0000000 L 31.300000,8.9000000 z "
   id="path22430" />

						<path
   d="M 31.200000,9.3000000 L 31.300000,8.9000000 L 29.600000,9.0000000 L 31.200000,9.3000000 L 31.200000,9.3000000 z "
   id="path22432" />

					</g>
  <g
   id="g22438"
   transform="translate(2.000000,0.500000)"
   style="stroke-miterlimit:4.0000000;stroke:none;fill-rule:nonzero;fill:#dedede">
						<linearGradient
   id="aigrd32"
   gradientUnits="userSpaceOnUse"
   x1="30.365200"
   y1="9.1934004"
   x2="30.797100"
   y2="8.6850004">
							<stop
   offset="0"
   style="stop-color:#9F9F9F"
   id="stop22441" />

							<stop
   offset="1"
   style="stop-color:#828282"
   id="stop22443" />

						</linearGradient>

						<path
   style="fill:url(#linearGradient24661)"
   d="M 29.900000,8.9000000 L 31.000000,9.2000000 L 31.100000,8.9000000 L 29.900000,8.9000000 L 29.900000,8.9000000 z "
   id="path22445" />

						<path
   d="M 30.000000,8.7000000 L 29.900000,9.0000000 L 31.100000,9.0000000 L 30.000000,8.7000000 z "
   id="path22447" />

					</g>
  <g
   id="g22449"
   transform="translate(2.000000,0.500000)"
   style="stroke-miterlimit:4.0000000;stroke:none;fill-rule:nonzero;fill:#dedede">
						<linearGradient
   id="aigrd33"
   gradientUnits="userSpaceOnUse"
   x1="30.066401"
   y1="11.013200"
   x2="30.498199"
   y2="10.504800">
							<stop
   offset="0"
   style="stop-color:#9F9F9F"
   id="stop22452" />

							<stop
   offset="1"
   style="stop-color:#828282"
   id="stop22454" />

						</linearGradient>

						<path
   style="fill:url(#linearGradient24663)"
   d="M 29.600000,10.800000 L 30.800000,11.100000 L 30.900000,10.800000 L 29.700000,10.800000 L 29.600000,10.800000 z "
   id="path22456" />

						<path
   d="M 29.700000,10.500000 L 29.600000,10.800000 L 30.800000,10.800000 L 29.700000,10.600000 L 29.700000,10.500000 z "
   id="path22458" />

					</g>
  <g
   id="g22460"
   transform="translate(2.000000,0.500000)"
   style="stroke-miterlimit:4.0000000;stroke:none;fill-rule:nonzero;fill:#dedede">
						<linearGradient
   id="aigrd34"
   gradientUnits="userSpaceOnUse"
   x1="29.769501"
   y1="12.833500"
   x2="30.201300"
   y2="12.325100">
							<stop
   offset="0"
   style="stop-color:#9F9F9F"
   id="stop22463" />

							<stop
   offset="1"
   style="stop-color:#828282"
   id="stop22465" />

						</linearGradient>

						<path
   style="fill:url(#linearGradient24665)"
   d="M 29.300000,12.600000 L 30.400000,12.900000 L 30.500000,12.600000 L 29.300000,12.600000 L 29.300000,12.600000 z "
   id="path22467" />

						<path
   d="M 29.400000,12.300000 L 29.300000,12.600000 L 30.500000,12.600000 L 29.400000,12.400000 L 29.400000,12.300000 z "
   id="path22469" />

					</g>
  <g
   id="g22471"
   transform="translate(2.000000,0.500000)"
   style="stroke-miterlimit:4.0000000;stroke:none;fill-rule:nonzero;fill:#dedede">
						<linearGradient
   id="aigrd35"
   gradientUnits="userSpaceOnUse"
   x1="29.470699"
   y1="14.653300"
   x2="29.902901"
   y2="14.144500">
							<stop
   offset="0"
   style="stop-color:#9F9F9F"
   id="stop22474" />

							<stop
   offset="1"
   style="stop-color:#828282"
   id="stop22476" />

						</linearGradient>

						<path
   style="fill:url(#linearGradient24667)"
   d="M 29.000000,14.400000 L 30.100000,14.700000 L 30.200000,14.400000 L 29.000000,14.400000 L 29.000000,14.400000 z "
   id="path22478" />

						<path
   d="M 29.100000,14.100000 L 29.000000,14.400000 L 30.200000,14.400000 L 29.100000,14.200000 L 29.100000,14.100000 z "
   id="path22480" />

					</g>
  <g
   id="g22482"
   transform="translate(2.000000,0.500000)"
   style="stroke-miterlimit:4.0000000;stroke:none;fill-rule:nonzero;fill:#dedede">
						<linearGradient
   id="aigrd36"
   gradientUnits="userSpaceOnUse"
   x1="29.171900"
   y1="16.473600"
   x2="29.604099"
   y2="15.964800">
							<stop
   offset="0"
   style="stop-color:#9F9F9F"
   id="stop22485" />

							<stop
   offset="1"
   style="stop-color:#828282"
   id="stop22487" />

						</linearGradient>

						<path
   style="fill:url(#linearGradient24669)"
   d="M 28.700000,16.200000 L 29.900000,16.500000 L 30.000000,16.200000 L 28.800000,16.200000 L 28.700000,16.200000 z "
   id="path22489" />

						<path
   d="M 28.800000,15.900000 L 28.700000,16.200000 L 29.900000,16.200000 L 28.800000,16.000000 L 28.800000,15.900000 z "
   id="path22491" />

					</g>
  <g
   id="g22493"
   transform="translate(2.000000,0.500000)"
   style="stroke-miterlimit:4.0000000;stroke:none;fill-rule:nonzero;fill:#dedede">
						<linearGradient
   id="aigrd37"
   gradientUnits="userSpaceOnUse"
   x1="28.875000"
   y1="18.292999"
   x2="29.307199"
   y2="17.784100">
							<stop
   offset="0"
   style="stop-color:#9F9F9F"
   id="stop22496" />

							<stop
   offset="1"
   style="stop-color:#828282"
   id="stop22498" />

						</linearGradient>

						<path
   style="fill:url(#linearGradient24671)"
   d="M 28.400000,18.000000 L 29.500000,18.300000 L 29.600000,18.000000 L 28.400000,18.000000 L 28.400000,18.000000 z "
   id="path22500" />

						<path
   d="M 28.500000,17.800000 L 28.400000,18.000000 L 29.600000,18.000000 L 28.500000,17.800000 L 28.500000,17.800000 z "
   id="path22502" />

					</g>
</g>

	
</svg>