<?xml version="1.0" encoding="iso-8859-1"?>
<!-- Generator: Adobe Illustrator 10.0.3, SVG Export Plug-In . SVG Version: 3.0.0 Build 77)  -->
<!DOCTYPE svg PUBLIC "-//W3C//DTD SVG 1.0//EN"    "http://www.w3.org/TR/2001/REC-SVG-20010904/DTD/svg10.dtd" [
	<!ENTITY ns_flows "http://ns.adobe.com/Flows/1.0/">
	<!ENTITY ns_svg "http://www.w3.org/2000/svg">
	<!ENTITY ns_xlink "http://www.w3.org/1999/xlink">
]>
<svg  xmlns="&ns_svg;" xmlns:xlink="&ns_xlink;" xmlns:a="http://ns.adobe.com/AdobeSVGViewerExtensions/3.0/"
	 width="128.338" height="128" viewBox="0 0 128.338 128" overflow="visible" enable-background="new 0 0 128.338 128"
	 xml:space="preserve">
	<g id="Layer_1">
		<g>
			<g>
				<linearGradient id="XMLID_1_" gradientUnits="userSpaceOnUse" x1="6.1904" y1="15.2466" x2="118.4085" y2="84.4154">
					<stop  offset="0" style="stop-color:#FFFFFF"/>
					<stop  offset="1" style="stop-color:#DCDCE0"/>
					
					
					
				</linearGradient>
				<path fill="url(#XMLID_1_)" d="M127.531,80.996c1.861,14.939-105.829,34.131-110.737,16.123
					C11.887,79.109,1.906,24.886,0.797,19.291C-0.313,13.696,110.874-1.32,111.532,3.167
					C112.189,7.654,125.666,66.055,127.531,80.996z"/>
				<linearGradient id="XMLID_2_" gradientUnits="userSpaceOnUse" x1="116.8418" y1="84.4424" x2="16.8517" y2="20.8121">
					<stop  offset="0" style="stop-color:#FFFFFF"/>
					<stop  offset="1" style="stop-color:#DCDCE0"/>
					
					
					
				</linearGradient>
				<path fill="url(#XMLID_2_)" d="M122.298,77.221c0.826,6.619-11.407,12.535-46.091,16.738
					c-48.03,5.822-54.616,6.346-57.006-2.428c-4.564-16.75-13.06-64.557-14.093-69.761C4.076,16.566,107.499,2.599,108.11,6.775
					C108.721,10.948,120.564,63.323,122.298,77.221z"/>
				<path fill="#009900" d="M104.234,7.866c0.285,1.367-0.896,2.681-2.639,2.938c-1.743,0.258-3.389-0.64-3.674-2.008
					c-0.286-1.366,0.896-2.685,2.642-2.941C102.306,5.598,103.951,6.497,104.234,7.866z"/>
				
					<linearGradient id="XMLID_3_" gradientUnits="userSpaceOnUse" x1="94.2949" y1="35.8198" x2="96.8249" y2="32.8684" gradientTransform="matrix(0.9855 -0.1699 0.1699 0.9855 0.9799 -9.0811)">
					<stop  offset="0" style="stop-color:#97FF86"/>
					<stop  offset="1" style="stop-color:#94FF7F"/>
					
					
					
				</linearGradient>
				<path fill="url(#XMLID_3_)" d="M104.069,7.904c0.267,1.287-0.846,2.524-2.484,2.768c-1.64,0.241-3.187-0.602-3.455-1.889
					c-0.269-1.287,0.843-2.525,2.482-2.769C102.254,5.771,103.799,6.616,104.069,7.904z"/>
				
					<linearGradient id="XMLID_4_" gradientUnits="userSpaceOnUse" x1="94.3877" y1="35.6558" x2="96.7233" y2="32.9311" gradientTransform="matrix(0.9855 -0.1699 0.1699 0.9855 0.9799 -9.0811)">
					<stop  offset="0" style="stop-color:#3DDF00"/>
					<stop  offset="1" style="stop-color:#94FF7F"/>
					
					
					
				</linearGradient>
				<path fill="url(#XMLID_4_)" d="M103.82,7.904c0.246,1.187-0.78,2.332-2.295,2.556c-1.513,0.224-2.942-0.56-3.19-1.746
					c-0.25-1.187,0.778-2.332,2.294-2.556C102.144,5.935,103.57,6.716,103.82,7.904z"/>
				<path fill="#FFFFFF" stroke="#000000" d="M105.34,82.6"/>
				<path fill="#CCCCCC" d="M114.447,74.945c0.716,7.381-84.226,21.4-86.4,13.342C24.278,74.32,15.189,30.425,14.746,25.105
					c-0.21-2.52,85.443-15.399,86.905-11.75C103.425,17.788,113.178,61.904,114.447,74.945z"/>
				<path fill="#F5F5F9" d="M112.676,74.553c0.781,3.904-81.618,17.604-82.592,12.986c-0.974-4.621-12.82-61.472-12.82-61.472
					l83.12-12C100.384,14.067,111.896,70.646,112.676,74.553z"/>
				<linearGradient id="XMLID_5_" gradientUnits="userSpaceOnUse" x1="64.8813" y1="55.0024" x2="64.8813" y2="-3.4971">
					<stop  offset="0" style="stop-color:#9E9EAC"/>
					<stop  offset="1" style="stop-color:#42425B"/>
					
					
					
				</linearGradient>
				<path fill="url(#XMLID_5_)" d="M100.269,13.263L16.29,25.386l12.999,62.321c1.22,5.793,63.626-6.416,64.255-6.545
					c20.443-4.195,20.134-5.744,19.929-6.768v-0.002v0.002l-12.444-61.242L100.269,13.263z M99.74,14.982
					c0.297,1.462,11.979,58.947,12.084,59.467c-2.585,2.641-40.57,9.904-65.226,12.443c-13.243,1.365-15.403,0.572-15.747,0.336
					c-0.302-1.439-11.132-53.362-12.615-60.48C19.897,26.509,98.263,15.195,99.74,14.982z"/>
				<g>
					<path fill="#B4B4FF" d="M35.211,29.291l-3.852,0.533l-0.643-4.241l3.849-0.532L35.211,29.291z"/>
					
						<linearGradient id="XMLID_6_" gradientUnits="userSpaceOnUse" x1="28.9658" y1="28.7437" x2="27.4843" y2="30.6207" gradientTransform="matrix(0.9897 -0.1431 0.1562 1.0805 0.304 -0.42)">
						<stop  offset="0" style="stop-color:#F0E6FF"/>
						<stop  offset="1" style="stop-color:#D2D2FF"/>
						
						
						
					</linearGradient>
					<path fill="url(#XMLID_6_)" d="M35.049,29.129l-3.584,0.496l-0.588-3.865l3.584-0.497L35.049,29.129z"/>
				</g>
				<g>
					<path fill="#B4B4FF" d="M40.313,28.582l-3.85,0.533l-0.644-4.237l3.85-0.535L40.313,28.582z"/>
					
						<linearGradient id="XMLID_7_" gradientUnits="userSpaceOnUse" x1="34.1191" y1="28.7705" x2="32.6368" y2="30.6486" gradientTransform="matrix(0.9897 -0.1431 0.1562 1.0805 0.304 -0.42)">
						<stop  offset="0" style="stop-color:#F0E6FF"/>
						<stop  offset="1" style="stop-color:#D2D2FF"/>
						
						
						
					</linearGradient>
					<path fill="url(#XMLID_7_)" d="M40.154,28.421l-3.587,0.497l-0.588-3.867l3.587-0.497L40.154,28.421z"/>
				</g>
				<g>
					<path fill="#B4B4FF" d="M45.419,27.875l-3.852,0.532l-0.645-4.236l3.851-0.536L45.419,27.875z"/>
					
						<linearGradient id="XMLID_8_" gradientUnits="userSpaceOnUse" x1="39.2715" y1="28.7993" x2="37.7894" y2="30.677" gradientTransform="matrix(0.9897 -0.1431 0.1562 1.0805 0.304 -0.42)">
						<stop  offset="0" style="stop-color:#F0E6FF"/>
						<stop  offset="1" style="stop-color:#D2D2FF"/>
						
						
						
					</linearGradient>
					<path fill="url(#XMLID_8_)" d="M45.258,27.714l-3.585,0.497l-0.588-3.866l3.585-0.497L45.258,27.714z"/>
				</g>
				<g>
					<path fill="#B4B4FF" d="M50.521,27.168l-3.849,0.533l-0.644-4.241l3.85-0.534L50.521,27.168z"/>
					
						<linearGradient id="XMLID_9_" gradientUnits="userSpaceOnUse" x1="44.4238" y1="28.8276" x2="42.9421" y2="30.7049" gradientTransform="matrix(0.9897 -0.1431 0.1562 1.0805 0.304 -0.42)">
						<stop  offset="0" style="stop-color:#F0E6FF"/>
						<stop  offset="1" style="stop-color:#D2D2FF"/>
						
						
						
					</linearGradient>
					<path fill="url(#XMLID_9_)" d="M50.361,27.007l-3.585,0.497l-0.587-3.866l3.585-0.495L50.361,27.007z"/>
				</g>
				<g>
					<path fill="#B4B4FF" d="M55.626,26.458l-3.851,0.537l-0.643-4.241l3.848-0.534L55.626,26.458z"/>
					
						<linearGradient id="XMLID_10_" gradientUnits="userSpaceOnUse" x1="49.5776" y1="28.856" x2="48.0953" y2="30.734" gradientTransform="matrix(0.9897 -0.1431 0.1562 1.0805 0.304 -0.42)">
						<stop  offset="0" style="stop-color:#F0E6FF"/>
						<stop  offset="1" style="stop-color:#D2D2FF"/>
						
						
						
					</linearGradient>
					<path fill="url(#XMLID_10_)" d="M55.467,26.299l-3.587,0.499l-0.587-3.867l3.583-0.499L55.467,26.299z"/>
				</g>
				<g>
					<path fill="#B4B4FF" d="M60.728,25.751l-3.847,0.534l-0.645-4.24l3.847-0.532L60.728,25.751z"/>
					
						<linearGradient id="XMLID_11_" gradientUnits="userSpaceOnUse" x1="54.7295" y1="28.8833" x2="53.2475" y2="30.7609" gradientTransform="matrix(0.9897 -0.1431 0.1562 1.0805 0.304 -0.42)">
						<stop  offset="0" style="stop-color:#F0E6FF"/>
						<stop  offset="1" style="stop-color:#D2D2FF"/>
						
						
						
					</linearGradient>
					<path fill="url(#XMLID_11_)" d="M60.569,25.592l-3.587,0.497l-0.586-3.864l3.586-0.497L60.569,25.592z"/>
				</g>
				<g>
					<path fill="#B4B4FF" d="M65.834,25.044l-3.851,0.534l-0.644-4.24l3.849-0.534L65.834,25.044z"/>
					
						<linearGradient id="XMLID_12_" gradientUnits="userSpaceOnUse" x1="59.8818" y1="28.9102" x2="58.4003" y2="30.7872" gradientTransform="matrix(0.9897 -0.1431 0.1562 1.0805 0.304 -0.42)">
						<stop  offset="0" style="stop-color:#F0E6FF"/>
						<stop  offset="1" style="stop-color:#D2D2FF"/>
						
						
						
					</linearGradient>
					<path fill="url(#XMLID_12_)" d="M65.672,24.884l-3.584,0.497L61.5,21.517l3.585-0.497L65.672,24.884z"/>
				</g>
				<g>
					<path fill="#B4B4FF" d="M70.936,24.339l-3.847,0.532l-0.646-4.24l3.848-0.534L70.936,24.339z"/>
					
						<linearGradient id="XMLID_13_" gradientUnits="userSpaceOnUse" x1="65.0337" y1="28.9375" x2="63.5516" y2="30.8152" gradientTransform="matrix(0.9897 -0.1431 0.1562 1.0805 0.304 -0.42)">
						<stop  offset="0" style="stop-color:#F0E6FF"/>
						<stop  offset="1" style="stop-color:#D2D2FF"/>
						
						
						
					</linearGradient>
					<path fill="url(#XMLID_13_)" d="M70.777,24.177l-3.587,0.497l-0.588-3.866l3.587-0.496L70.777,24.177z"/>
				</g>
				<g>
					<path fill="#B4B4FF" d="M76.042,23.631l-3.85,0.532l-0.646-4.238l3.851-0.534L76.042,23.631z"/>
					
						<linearGradient id="XMLID_14_" gradientUnits="userSpaceOnUse" x1="70.1865" y1="28.9673" x2="68.7048" y2="30.8445" gradientTransform="matrix(0.9897 -0.1431 0.1562 1.0805 0.304 -0.42)">
						<stop  offset="0" style="stop-color:#F0E6FF"/>
						<stop  offset="1" style="stop-color:#D2D2FF"/>
						
						
						
					</linearGradient>
					<path fill="url(#XMLID_14_)" d="M75.88,23.471l-3.586,0.496l-0.586-3.864l3.583-0.498L75.88,23.471z"/>
				</g>
				<g>
					<path fill="#B4B4FF" d="M81.144,22.922l-3.847,0.535l-0.647-4.24l3.85-0.535L81.144,22.922z"/>
					
						<linearGradient id="XMLID_15_" gradientUnits="userSpaceOnUse" x1="75.3418" y1="28.9937" x2="73.8596" y2="30.8715" gradientTransform="matrix(0.9897 -0.1431 0.1562 1.0805 0.304 -0.42)">
						<stop  offset="0" style="stop-color:#F0E6FF"/>
						<stop  offset="1" style="stop-color:#D2D2FF"/>
						
						
						
					</linearGradient>
					<path fill="url(#XMLID_15_)" d="M80.985,22.763l-3.584,0.498l-0.588-3.866l3.584-0.498L80.985,22.763z"/>
				</g>
				<g>
					<path fill="#B4B4FF" d="M86.249,22.215L82.4,22.749l-0.645-4.24l3.849-0.532L86.249,22.215z"/>
					
						<linearGradient id="XMLID_16_" gradientUnits="userSpaceOnUse" x1="80.4922" y1="29.021" x2="79.0101" y2="30.8987" gradientTransform="matrix(0.9897 -0.1431 0.1562 1.0805 0.304 -0.42)">
						<stop  offset="0" style="stop-color:#F0E6FF"/>
						<stop  offset="1" style="stop-color:#D2D2FF"/>
						
						
						
					</linearGradient>
					<path fill="url(#XMLID_16_)" d="M86.089,22.054l-3.587,0.498l-0.586-3.866l3.585-0.497L86.089,22.054z"/>
				</g>
				<g>
					<path fill="#00B3DF" d="M99.832,20.385l-3.849,0.534l-0.643-4.238l3.848-0.536L99.832,20.385z"/>
					
						<linearGradient id="XMLID_17_" gradientUnits="userSpaceOnUse" x1="94.1992" y1="29.1426" x2="92.7168" y2="31.0207" gradientTransform="matrix(0.9897 -0.1431 0.1562 1.0805 0.304 -0.42)">
						<stop  offset="0" style="stop-color:#9FFFF2"/>
						<stop  offset="1" style="stop-color:#00DBDF"/>
						
						
						
					</linearGradient>
					<path fill="url(#XMLID_17_)" d="M99.674,20.227l-3.586,0.497l-0.589-3.867l3.588-0.497L99.674,20.227z"/>
				</g>
				<linearGradient id="XMLID_18_" gradientUnits="userSpaceOnUse" x1="63.0747" y1="54.3901" x2="62.4355" y2="69.4092">
					<stop  offset="0" style="stop-color:#FFFFFF"/>
					<stop offset="1" style="stop-color:#FFFFFF;stop-opacity:0"/>
					
					
					
				</linearGradient>
				<path fill="url(#XMLID_18_)"  a:adobe-blending-mode="screen" d="M105.702,57.659c0,0-13.149-22.193-42.299,1.894
					c-19.783,16.346-34.935,7.782-36.68-1.321c-3.051-15.901-4.476-15.935-5.581-23.462l78.854-11.933L105.702,57.659z"/>
				<g>
					<path fill="#00B3DF" d="M94.636,21.134l-3.85,0.534l-0.644-4.24l3.848-0.534L94.636,21.134z"/>
					
						<linearGradient id="XMLID_19_" gradientUnits="userSpaceOnUse" x1="88.9492" y1="29.1401" x2="87.4667" y2="31.0185" gradientTransform="matrix(0.9897 -0.1431 0.1562 1.0805 0.304 -0.42)">
						<stop  offset="0" style="stop-color:#9FFFF2"/>
						<stop  offset="1" style="stop-color:#00DBDF"/>
						
						
						
					</linearGradient>
					<path fill="url(#XMLID_19_)" d="M94.474,20.975l-3.583,0.497l-0.587-3.867l3.586-0.498L94.474,20.975z"/>
				</g>
				<linearGradient id="XMLID_20_" gradientUnits="userSpaceOnUse" x1="81.7988" y1="104.1729" x2="88.4529" y2="114.2248">
					<stop  offset="0" style="stop-color:#FFFFFF"/>
					<stop  offset="1" style="stop-color:#DCDCE0"/>
					
					
					
				</linearGradient>
				<path fill="url(#XMLID_20_)" d="M17.832,98.24c45.394-0.283,78.291-8.125,108.931-16.84c0.739-0.047-0.271,1.908-0.476,2.127
					c6.34-2.236-16.458,6.914-51.834,12.365C58.115,98.41,39.425,99.678,19.089,99.5C18.97,99.5,18.169,99.188,17.832,98.24z"/>
				<linearGradient id="XMLID_21_" gradientUnits="userSpaceOnUse" x1="72.2461" y1="100.2275" x2="72.2461" y2="83.7089">
					<stop  offset="0" style="stop-color:#9E9E9E"/>
					<stop  offset="1" style="stop-color:#616161"/>
					
					
					
				</linearGradient>
				<path fill="url(#XMLID_21_)" d="M22.745,97.578c-4.472,0.016-5.056,0.033-5.312,0.352l0.53,0.594
					c0.309-0.117,2.284-0.123,4.784-0.131c13.5-0.041,54.581-0.162,104.313-16.395l-0.252-0.773
					C77.198,97.418,36.214,97.539,22.745,97.578z"/>
				<linearGradient id="XMLID_22_" gradientUnits="userSpaceOnUse" x1="64.6851" y1="-1.2637" x2="63.5267" y2="114.3761">
					<stop  offset="0" style="stop-color:#9E9EAC"/>
					<stop  offset="1" style="stop-color:#42425B"/>
					
					
					
				</linearGradient>
				<path fill="url(#XMLID_22_)" d="M0.655,17.963C-0.019,18.532-0.073,19.086,0,19.45l1.11,5.833
					c2.94,15.538,10.75,56.814,14.899,72.049c3.164,11.607,42.483,8.281,68.138,3.211c22.007-4.346,45.17-11.791,44.191-19.646
					c-1.265-10.131-7.818-40.038-12.155-59.827c-2.033-9.27-3.638-16.592-3.848-18.02c-0.048-0.326-0.258-0.771-1-1.051
					C102.433-1.365,7.269,12.362,0.655,17.963z M14.665,15.225c30.927-6.799,92.331-13.809,96.107-11.676
					c0.312,1.851,1.789,8.599,3.822,17.869c4.33,19.762,10.874,49.625,12.129,59.678c0.671,5.389-16.967,12.73-42.892,17.852
					c-30.643,6.055-63.803,6.945-66.254-2.043C13.445,81.732,5.646,40.502,2.708,24.981c0,0-1.031-5.412-1.085-5.699
					C1.882,18.957,3.568,17.663,14.665,15.225z"/>
			</g>
			<g>
				<linearGradient id="XMLID_23_" gradientUnits="userSpaceOnUse" x1="36.5869" y1="52.3384" x2="35.786" y2="132.2929">
					<stop  offset="0" style="stop-color:#9E9EAC"/>
					<stop  offset="1" style="stop-color:#42425B"/>
					
					
					
				</linearGradient>
				<path fill="url(#XMLID_23_)" d="M40.497,63.287c-4.408,9.829-16.886,57.645-16.595,60.045c0.178,1.488,0.886,2.186,2.705,2.67
					c1.93,0.512,2.848,0.047,3.638-0.82c1.497-1.643,16.552-50.805,17.718-59.453c0.256-1.911,0.422-3.499,0.512-4.82
					c0.355-5.177-0.444-6.259-1.41-6.533C45.696,53.985,44.057,55.35,40.497,63.287z M27.055,124.312
					c-1.319-0.348-1.351-0.611-1.42-1.188c-0.002-0.023,0.001-0.053,0.004-0.086c0.214-3.133,11.958-49.016,16.45-59.039
					c2.733-6.094,4.029-7.497,4.466-7.826c0.153,0.373,0.393,1.46,0.178,4.6c-0.084,1.232-0.239,2.78-0.501,4.72
					c-1.175,8.732-15.985,56.35-17.312,58.543C28.59,124.398,28.316,124.648,27.055,124.312z M30.245,125.182v0.002V125.182z"/>
				<path fill="#FFFFFF" d="M29.6,124.594c-0.592,0.65-1.179,0.986-2.77,0.564s-1.94-0.916-2.063-1.93
					c-0.242-2.025,12.112-49.742,16.526-59.585c5.857-13.06,7.396-9.862,5.805,1.968C45.913,74.41,30.782,123.297,29.6,124.594z"/>
				
					<linearGradient id="XMLID_24_" gradientUnits="userSpaceOnUse" x1="8.6763" y1="38.3643" x2="30.6744" y2="51.9234" gradientTransform="matrix(0.9623 0.2722 -0.2722 0.9623 33.1546 32.6087)">
					<stop  offset="0" style="stop-color:#FFFFFF"/>
					<stop  offset="1" style="stop-color:#DCDCE0"/>
					
					
					
				</linearGradient>
				<path fill="url(#XMLID_24_)" d="M35.179,104.977c0,0-0.677-0.92-2.126-1.389c-1.873-0.609-2.536-0.244-2.51-0.393
					c0.8-4.604,10.32-36.562,12.166-40.416c4.318-9.005,4.794-6.97,3.888,1.307C45.923,70.24,35.941,103.963,35.179,104.977z"/>
				
					<linearGradient id="XMLID_25_" gradientUnits="userSpaceOnUse" x1="14.248" y1="62.9277" x2="18.1306" y2="74.4674" gradientTransform="matrix(0.9623 0.2722 -0.2722 0.9623 33.1546 32.6087)">
					<stop  offset="0" style="stop-color:#FFFFFF"/>
					<stop  offset="1" style="stop-color:#DCDCE0"/>
					
					
					
				</linearGradient>
				<path fill="url(#XMLID_25_)" d="M26.158,120.871c1.108-5.26,4.328-17.105,4.328-17.105c1.256-0.273,3.723,0.461,4.547,1.719
					c0,0-2.021,6.607-3.618,11.488c-1.21,3.701-2.128,7.15-3.531,7.258C25.907,124.383,25.778,122.684,26.158,120.871z"/>
				<path fill="none" stroke="#787878" stroke-width="0.25" stroke-linecap="round" d="M29.872,103.445
					c-0.654,0.283,3.27-1.418,5.883,2.355"/>
				
					<linearGradient id="XMLID_26_" gradientUnits="userSpaceOnUse" x1="-68.4268" y1="21.7373" x2="-56.4472" y2="22.4468" gradientTransform="matrix(-0.2797 0.9815 -1.2186 -0.3474 50.6374 141.2638)">
					<stop  offset="0" style="stop-color:#DCDCE0"/>
					<stop  offset="1" style="stop-color:#BEBEC2"/>
					
					
					
				</linearGradient>
				<path fill="url(#XMLID_26_)" d="M38.396,80.811c-1.223-0.348-0.463-3.062,0.678-7.094c1.143-4.033,2.176-6.979,3.381-6.592
					c1.414,0.449,0.525,3.357-0.618,7.391C40.696,78.545,39.769,81.203,38.396,80.811z"/>
				
					<linearGradient id="XMLID_27_" gradientUnits="userSpaceOnUse" x1="-56.3564" y1="3.668" x2="-67.6963" y2="-1.5967" gradientTransform="matrix(-0.2741 0.9617 -0.9617 -0.2741 24.2377 133.5791)">
					<stop  offset="0" style="stop-color:#0054BF"/>
					<stop  offset="1" style="stop-color:#0047BF"/>
					
					
					
				</linearGradient>
				<path fill="url(#XMLID_27_)" d="M38.161,80.361c-0.966-0.275-0.221-2.932,0.899-6.885c1.119-3.951,2.096-6.846,3.046-6.535
					c1.115,0.367,0.253,3.219-0.866,7.168C40.12,78.061,39.243,80.672,38.161,80.361z"/>
				
					<linearGradient id="XMLID_28_" gradientUnits="userSpaceOnUse" x1="-56.2979" y1="-14.3276" x2="-66.9177" y2="-19.258" gradientTransform="matrix(-0.2741 0.9617 -0.8165 -0.2328 9.573 128.7048)">
					<stop  offset="0" style="stop-color:#0054BF"/>
					<stop  offset="1" style="stop-color:#5FA0FF"/>
					
					
					
				</linearGradient>
				<path fill="url(#XMLID_28_)" d="M38.332,79.752c-0.46-0.135-0.031-3.078,0.961-6.572s2.171-6.219,2.631-6.086
					s0.034,3.078-0.959,6.574C39.973,77.16,38.795,79.887,38.332,79.752z"/>
				
					<linearGradient id="XMLID_29_" gradientUnits="userSpaceOnUse" x1="-65.5415" y1="-16.9116" x2="-62.9602" y2="-15.7739" gradientTransform="matrix(-0.0901 0.996 -0.996 -0.0901 18.9886 131.3304)">
					<stop  offset="0" style="stop-color:#BFE2FF"/>
					<stop  offset="1" style="stop-color:#5FA0FF"/>
					
					
					
				</linearGradient>
				<path fill="url(#XMLID_29_)" d="M40.546,70.061c-0.223,0.113-0.126-0.449,0.219-1.256c0.343-0.807,0.805-1.551,1.028-1.668
					c0.227-0.111,0.128,0.449-0.216,1.258C41.231,69.197,40.771,69.945,40.546,70.061z"/>
			</g>
			<g>
				<linearGradient id="XMLID_30_" gradientUnits="userSpaceOnUse" x1="95.7041" y1="50.5229" x2="94.9675" y2="124.0589">
					<stop  offset="0" style="stop-color:#9E9EAC"/>
					<stop  offset="1" style="stop-color:#42425B"/>
					
					
					
				</linearGradient>
				<path fill="url(#XMLID_30_)" d="M73.627,57.621c-6.967,4.504-10.567,9.948-9.885,14.936
					c1.254,9.119,18.941,37.816,37.136,44.676c7.391,2.787,14.01,1.715,19.682-3.193c5.386-4.662,7.554-10.602,6.428-17.658
					c-3.196-20.1-31.438-41.943-34.617-43.279C88.551,50.696,79.829,53.616,73.627,57.621z M74.724,59.317
					c6.347-4.103,14.001-6.13,16.719-4.427c2.866,1.217,30.513,22.7,33.553,41.809c1.002,6.316-0.936,11.639-5.759,15.812
					c-5.064,4.383-11.004,5.336-17.645,2.83c-17.232-6.494-34.677-34.525-35.849-43.062C65.179,68.164,68.536,63.318,74.724,59.317z
					"/>
				<path fill="#FFFFFF" d="M64.764,72.377C63.232,61.21,86.001,50.239,92.003,53.992c4.463,1.879,50.941,39.319,27.919,59.243
					C97.639,132.516,66.301,83.547,64.764,72.377z"/>
				<linearGradient id="XMLID_31_" gradientUnits="userSpaceOnUse" x1="78.3838" y1="76.7646" x2="98.1337" y2="86.256">
					<stop  offset="0" style="stop-color:#FFFFFF"/>
					<stop  offset="1" style="stop-color:#DCDCE0"/>
					
					
					
				</linearGradient>
				<path fill="url(#XMLID_31_)" d="M73.503,82.863c-2.433-1.121,9.833,2.906,19.104-1.496c12.082-7.961,6.648-17.512,6.743-19.012
					c2.245-0.185,40.392,33.706,18.821,49.727C104.693,122.096,78.654,98.596,73.503,82.863z"/>
				<path fill="none" stroke="#FFFFFF" stroke-linecap="round" d="M69.295,81.652c20.068,8.994,38.757-5.344,29.515-21.609"/>
				<linearGradient id="XMLID_32_" gradientUnits="userSpaceOnUse" x1="82.3145" y1="58.6621" x2="92.0932" y2="65.1809">
					<stop  offset="0" style="stop-color:#FFFFFF"/>
					<stop  offset="1" style="stop-color:#DCDCE0"/>
					
					
					
				</linearGradient>
				<path fill="url(#XMLID_32_)" d="M80.979,55.65c-0.213,0.54,13.275,11.59,9.904,17.706c0,0,3.161,2.949,4.425,4.916
					c0.29,0.453,8.434-6.887,1.731-19.753c-2.481-2.328-3.855-4.372-6.449-4.771C87.998,53.349,81.188,55.111,80.979,55.65z"/>
				<linearGradient id="XMLID_33_" gradientUnits="userSpaceOnUse" x1="71.8643" y1="56.689" x2="85.9885" y2="66.6848">
					<stop  offset="0" style="stop-color:#FFFFFF"/>
					<stop  offset="1" style="stop-color:#DCDCE0"/>
					
					
					
				</linearGradient>
				<path fill="url(#XMLID_33_)" d="M72.724,60.374c0,0,12.076,16.298,16.1,11.64c4.026-4.658-9.021-16.157-9.021-16.157"/>
				
					<linearGradient id="XMLID_34_" gradientUnits="userSpaceOnUse" x1="57.3911" y1="-11.791" x2="47.5287" y2="-16.3698" gradientTransform="matrix(0.6684 0.7438 -0.7438 0.6684 36.708 35.8982)">
					<stop  offset="0" style="stop-color:#0054BF"/>
					<stop  offset="1" style="stop-color:#0047BF"/>
					
					
					
				</linearGradient>
				<path fill="url(#XMLID_34_)" d="M86.348,70.109c-1.257,1.127-4.099,0.008-6.352-2.5c-2.256-2.508-3.066-5.455-1.811-6.583
					c1.253-1.126,4.097-0.007,6.352,2.5C86.789,66.035,87.6,68.986,86.348,70.109z"/>
				
					<linearGradient id="XMLID_35_" gradientUnits="userSpaceOnUse" x1="56.6514" y1="-12.1699" x2="47.9272" y2="-16.2202" gradientTransform="matrix(0.6684 0.7438 -0.7438 0.6684 36.708 35.8982)">
					<stop  offset="0" style="stop-color:#0054BF"/>
					<stop  offset="1" style="stop-color:#5FA0FF"/>
					
					
					
				</linearGradient>
				<path fill="url(#XMLID_35_)" d="M85.843,69.377c-1.132,1.018-3.669,0.043-5.662-2.174c-1.992-2.219-2.689-4.842-1.556-5.862
					c1.132-1.017,3.668-0.045,5.661,2.174C86.281,65.734,86.977,68.359,85.843,69.377z"/>
				
					<linearGradient id="XMLID_36_" gradientUnits="userSpaceOnUse" x1="73.333" y1="25.4644" x2="75.487" y2="26.4137" gradientTransform="matrix(0.9318 0.3629 -0.3629 0.9318 20.7879 10.9984)">
					<stop  offset="0" style="stop-color:#BFE2FF"/>
					<stop  offset="1" style="stop-color:#5FA0FF"/>
					
					
					
				</linearGradient>
				<path fill="url(#XMLID_36_)" d="M81.913,62.553c-0.144,0.366-0.86,0.43-1.604,0.141c-0.741-0.288-1.229-0.819-1.086-1.185
					c0.145-0.367,0.861-0.433,1.604-0.143C81.57,61.657,82.056,62.189,81.913,62.553z"/>
				<linearGradient id="XMLID_37_" gradientUnits="userSpaceOnUse" x1="61.3047" y1="64.8159" x2="85.2075" y2="78.5055">
					<stop  offset="0" style="stop-color:#FFFFFF"/>
					<stop  offset="1" style="stop-color:#DCDCE0"/>
					
					
					
				</linearGradient>
				<path fill="url(#XMLID_37_)" d="M72.735,61.667l-0.023,0.15c0,0-10.07,7.275-2.813,17.617c3.753,3.672,18.806,4.318,24.355-0.25
					c0.334-0.416-4.775-5.553-4.775-5.553s-4.149,1.135-7.402-1.371C78.823,69.76,73.568,64.003,72.735,61.667z"/>
				<linearGradient id="XMLID_38_" gradientUnits="userSpaceOnUse" x1="88.6211" y1="66.3701" x2="98.2506" y2="66.9404">
					<stop  offset="0" style="stop-color:#DCDCE0"/>
					<stop  offset="1" style="stop-color:#BEBEC2"/>
					
					
					
				</linearGradient>
				<path fill="url(#XMLID_38_)" d="M89.993,53.99c14.805,8.744,8.59,22.563,4.608,25.196c-0.162,0.826,7.402-3.854,5.798-12.404
					c-0.818-4.94-0.682-5.339-2.319-7.538C96.446,57.048,89.911,52.341,89.993,53.99z"/>
				<linearGradient id="XMLID_39_" gradientUnits="userSpaceOnUse" x1="69.877" y1="71.7227" x2="90.4978" y2="72.944">
					<stop  offset="0" style="stop-color:#DCDCE0"/>
					<stop  offset="1" style="stop-color:#BEBEC2"/>
					
					
					
				</linearGradient>
				<path fill="url(#XMLID_39_)" d="M71.853,61.47c0,0,5.51,10.7,10.764,13.227c0.49,0.184,2.655,1.818,6.741,0.586
					c0.4-0.121,2.176,2.127,2.985,3.049c1.729,1.967-1.988,3.949-8.605,4.721c-1.167,0.26,7.314,0.516,11.131-3.488
					c0.464,0.049-5.165-6.215-5.48-6.123c-0.313,0.094-4.958,5.602-17.343-12.1C71.656,61.082,71.853,61.47,71.853,61.47z"/>
				<path fill="none" stroke="#787878" stroke-width="0.5" stroke-linecap="round" d="M68.766,81.002
					c19.778,7.148,38.391-2.133,29.52-21.912"/>
				<path fill="none" stroke="#787878" stroke-width="0.5" stroke-linecap="round" d="M79.834,56.126
					c0,0,14.681,13.202,9.364,17.237c-6.307,4.783-17.352-12.447-17.352-12.447"/>
				<path fill="none" stroke="#787878" stroke-width="0.5" stroke-linecap="round" d="M89.357,73.271l5.511,6.293"/>
			</g>
		</g>
		<path fill="none" d="M128.169,128h-128V0h128V128z"/>
	</g>
</svg>
