<?xml version="1.0" encoding="UTF-8" standalone="no"?>
<!-- Created with Inkscape (http://www.inkscape.org/) -->

<svg
   xmlns:dc="http://purl.org/dc/elements/1.1/"
   xmlns:cc="http://creativecommons.org/ns#"
   xmlns:rdf="http://www.w3.org/1999/02/22-rdf-syntax-ns#"
   xmlns:svg="http://www.w3.org/2000/svg"
   xmlns="http://www.w3.org/2000/svg"
   version="1.1"
   width="11.738281"
   height="12.460938"
   viewBox="0 0 9.3906244 9.9687503"
   id="svg2">
  <metadata
     id="metadata10">
    <rdf:RDF>
      <cc:Work
         rdf:about="">
        <dc:format>image/svg+xml</dc:format>
        <dc:type
           rdf:resource="http://purl.org/dc/dcmitype/StillImage" />
        <dc:title></dc:title>
      </cc:Work>
    </rdf:RDF>
  </metadata>
  <defs
     id="defs8" />
  <g
     transform="translate(-0.56250071,0)"
     id="surface1">
    <g
       id="g15"
       style="fill:#000000;fill-opacity:1">
      <path
         d="m 4.203125,5.328125 -3.546875,4.375 C 0.578125,9.796875 0.5625,9.8125 0.5625,9.859375 c 0,0.109375 0.09375,0.109375 0.28125,0.109375 l 8.25,0 0.859375,-2.484375 -0.25,0 C 9.453125,8.234375 8.796875,8.84375 7.9375,9.125 7.78125,9.1875 7.09375,9.421875 5.625,9.421875 l -4.234375,0 3.46875,-4.28125 C 4.921875,5.046875 4.9375,5.03125 4.9375,4.984375 4.9375,4.9375 4.9375,4.9375 4.875,4.84375 l -3.234375,-4.4375 3.9375,0 c 1.140625,0 3.4375,0.0625 4.125,1.921875 l 0.25,0 L 9.09375,0 0.84375,0 C 0.5625,0 0.5625,0.015625 0.5625,0.3125 z"
         id="path12"
         style="stroke:none" />
    </g>
  </g>
</svg>
