<?xml version="1.0" encoding="UTF-8" standalone="no"?>

<svg
   xmlns:dc="http://purl.org/dc/elements/1.1/"
   xmlns:cc="http://creativecommons.org/ns#"
   xmlns:rdf="http://www.w3.org/1999/02/22-rdf-syntax-ns#"
   xmlns:svg="http://www.w3.org/2000/svg"
   xmlns="http://www.w3.org/2000/svg"
   version="1.1"
   preserveAspectRatio="xMinYMin meet"
   xml:space="preserve">

<path id="stroke0" style="fill:none;stroke:#000000;stroke-width:5;stroke-linecap:round;" d="  M 5 29 L 5 30 L 5 32 L 5 34 L 6 37 L 7 39 L 8 42 L 9 46 L 9 48 L 11 51 L 12 54 L 13 57 L 15 62 L 16 65 L 18 71 L 19 75 L 21 80 L 23 85 L 24 91 L 25 95 L 27 100 L 27 104 L 29 109 L 30 112 L 32 115 L 33 119 L 33 122 L 33 125 L 34 128 L 35 131 L 36 134 L 36 137 L 36 141 L 37 143 L 37 146 L 38 147 L 39 150 L 39 151 L 39 150 L 39 149 L 39 147 L 40 145 L 40 142 L 41 139 L 41 136 L 42 132 L 43 128 L 43 121 L 44 115 L 45 107 L 45 100 L 45 93 L 45 86 L 45 80 L 45 75 L 45 71 L 45 66 L 45 62 L 45 58 L 45 54 L 45 49 L 45 46 L 45 43 L 45 40 L 44 38 L 44 35 L 43 33 L 43 30 L 43 28 L 42 26 L 41 24 L 40 22 L 40 21 L 39 20 L 38 18 L 38 17 L 37 15 L 37 14 L 36 13 L 36 12 L 35 11 L 35 10 L 35 9 L 34 8 L 35 7 L 37 7 L 39 7 L 42 6 L 46 6 L 52 5 L 59 5 L 68 5 L 78 5 L 89 5 L 100 6 L 111 6 L 122 7 L 133 7 L 144 8 L 155 9 L 165 9 L 175 9 L 185 10 L 194 10 L 201 11 L 210 11 L 216 11 L 223 11 L 229 12 L 233 12 L 236 12 L 238 12 L 240 12 L 241 12 L 242 12" /><path id="stroke1" style="fill:none;stroke:#FFFF00;stroke-width:5;stroke-linecap:round;" d="  M 66 39 L 66 40 L 66 42 L 67 44 L 67 47 L 69 50 L 71 55 L 75 60 L 78 64 L 81 68 L 83 72 L 86 74 L 87 76 L 88 77 L 89 78 L 90 78 L 91 79" /><path id="stroke2" style="fill:none;stroke:#FFFF00;stroke-width:5;stroke-linecap:round;" d="  M 65 75 L 66 73 L 67 72 L 68 70 L 68 69 L 70 67 L 72 64 L 73 62 L 74 60 L 76 58 L 78 55 L 79 53 L 80 51 L 81 49 L 83 47 L 84 45 L 86 45 L 87 43 L 87 41 L 89 40 L 89 39 L 90 38 L 91 37 L 91 36" /><path id="stroke3" style="fill:none;stroke:#1CE6FF;stroke-width:5;stroke-linecap:round;" d="  M 117 38 L 117 39 L 117 40 L 117 41 L 117 43 L 117 46 L 117 48 L 117 50 L 117 51 L 117 55 L 116 57 L 116 59 L 116 60 L 115 63 L 115 65 L 115 66 L 115 67 L 115 70 L 115 71 L 115 72 L 115 73" /><path id="stroke4" style="fill:none;stroke:#1CE6FF;stroke-width:5;stroke-linecap:round;" d="  M 108 57 L 109 57 L 111 57 L 113 57 L 115 57 L 118 57 L 122 57 L 127 57 L 131 57 L 134 57 L 137 57 L 140 57 L 142 58 L 145 58 L 146 58 L 146 59" /><path id="stroke5" style="fill:none;stroke:#FF34FF;stroke-width:5;stroke-linecap:round;" d="  M 167 36 L 167 37 L 167 38 L 167 40 L 166 43 L 166 46 L 166 49 L 166 53 L 166 59 L 166 64 L 166 69 L 166 73 L 166 77 L 166 80 L 166 82 L 166 83 L 166 82" /><path id="stroke6" style="fill:none;stroke:#FF4A46;stroke-width:5;stroke-linecap:round;" d="  M 70 97 L 71 97 L 73 97 L 76 97 L 81 97 L 86 97 L 94 97 L 104 97 L 116 99 L 129 100 L 142 101 L 156 102 L 169 102 L 183 102 L 196 102 L 210 102 L 221 102 L 231 102 L 240 101 L 249 100 L 256 100 L 260 100 L 263 100 L 264 100 L 263 100" /><path id="stroke7" style="fill:none;stroke:#FF4A46;stroke-width:5;stroke-linecap:round;" d="  M 87 116 L 88 119 L 88 120 L 90 122 L 92 125 L 94 128 L 98 132 L 100 135 L 104 139 L 107 143 L 110 146 L 112 149 L 114 151 L 115 153 L 116 154 L 118 155 L 118 156 L 118 155" /><path id="stroke8" style="fill:none;stroke:#FF4A46;stroke-width:5;stroke-linecap:round;" d="  M 115 132 L 114 132 L 113 134 L 111 135 L 110 137 L 108 140 L 106 141 L 104 144 L 101 147 L 98 150 L 95 151 L 93 153 L 91 154 L 90 156 L 89 157 L 88 157 L 87 158 L 86 158 L 86 157" /><path id="stroke9" style="fill:none;stroke:#008941;stroke-width:5;stroke-linecap:round;" d="  M 121 114 L 122 113 L 123 113 L 124 112 L 126 112 L 128 112 L 130 112 L 132 112 L 135 112 L 136 112 L 138 112 L 140 113 L 142 114 L 143 114 L 145 115 L 145 116 L 145 117 L 144 117 L 143 118 L 142 119 L 141 119 L 139 120 L 138 121 L 136 121 L 135 121 L 133 122 L 131 123 L 128 123 L 126 124 L 125 124 L 123 124 L 122 124 L 121 125 L 119 125 L 118 126 L 119 126 L 120 126 L 121 126 L 122 126 L 123 126 L 125 126 L 127 127 L 128 127 L 129 127 L 131 127 L 132 127 L 133 127 L 135 127 L 137 127 L 139 127 L 140 127 L 142 127 L 143 127 L 144 127 L 145 127 L 146 127" /><path id="stroke10" style="fill:none;stroke:#006FA6;stroke-width:5;stroke-linecap:round;" d="  M 159 142 L 160 141 L 161 141 L 163 141 L 165 141 L 167 140 L 170 140 L 173 140 L 176 140 L 178 140 L 179 140 L 180 140 L 181 140" /><path id="stroke11" style="fill:none;stroke:#A30059;stroke-width:5;stroke-linecap:round;" d="  M 208 117 L 208 118 L 208 119 L 208 120 L 208 121 L 208 123 L 208 125 L 208 127 L 208 130 L 208 133 L 209 136 L 209 142 L 209 146 L 209 149 L 209 152 L 209 155 L 209 158 L 209 159 L 209 160 L 209 161" />

</svg>